<svg width="123" height="102" viewBox="0 0 123 102" fill="none" xmlns="http://www.w3.org/2000/svg">
<path d="M117.612 0.991144C116.644 0.93099 115.605 1.03666 114.765 1.28053C103.549 4.53261 91.5745 8.06595 78.1554 12.0832C56.7929 18.4785 31.4829 26.0697 5.73063 33.8853C3.9137 34.437 1.74728 36.1061 1.12265 38.2289C0.561505 40.1348 1.12536 42.0267 2.63078 43.2899C3.48552 44.0074 4.46453 44.3938 5.39416 44.7282C9.29448 46.1312 13.2594 47.564 17.094 48.9492C25.4661 51.9742 34.1209 55.1011 42.6613 58.124C42.3807 60.4038 42.1039 62.7032 41.8304 65.0313C41.3805 68.86 41.1531 70.7746 41.018 72.1083C40.2582 79.6177 40.376 83.1706 40.4487 84.6533C40.7548 90.8713 41.8027 91.6939 42.2222 91.9589C44.1482 93.1739 47.132 91.6419 49.3163 90.5201C50.2427 90.0443 51.4073 89.3436 58.9013 83.0015C59.2367 82.7175 59.5118 82.4845 59.6898 82.3333C60.4729 83.564 61.2582 84.8012 62.0234 86.0065C64.6798 90.1917 67.4264 94.519 70.1876 98.7492C70.5452 99.2971 72.4327 101.974 75.157 101.974C75.2211 101.974 75.2857 101.972 75.3508 101.969C78.2417 101.835 79.8557 98.7129 80.1503 98.0886C83.2154 91.5845 86.2903 84.9573 89.2643 78.5485C90.8913 75.0417 92.5742 71.4157 94.2342 67.8536C96.7322 62.4946 99.2747 57.0472 101.734 51.7786C108.239 37.8387 114.967 23.4241 121.54 9.22404C122.338 7.49964 122.638 4.78515 121.412 2.8998C120.894 2.10479 119.815 1.12825 117.612 0.991683L117.612 0.991144ZM48.0041 48.2886C47.5992 48.5742 47.444 48.5986 47.4375 48.5991C47.4315 48.6002 47.2834 48.6175 46.8389 48.4539C38.8624 45.5161 30.7373 42.5968 22.8693 39.7706L87.7355 20.3497C74.5948 29.5673 61.1985 38.974 48.0046 48.288L48.0041 48.2886ZM50.9449 75.9717L51.6314 69.648L54.0078 73.378L50.9449 75.9722V75.9717ZM74.4108 86.1116L55.2609 56.0137L104.605 21.3046L74.4108 86.1116Z" fill="#627EEA"/>
</svg>
