<svg width="105" height="105" viewBox="0 0 105 105" fill="none" xmlns="http://www.w3.org/2000/svg">
<path d="M0.79464 0.0490723H31.2208L52.5 30.6339L73.7792 0.0490723H104.223L67.6523 52.4132L104.223 104.951H74.0222L52.5 74.123L30.9778 104.951H0.777267L37.3303 52.4132L0.79464 0.0490723ZM77.372 98.5422H91.9516L63.747 58.0229L59.703 63.8239L56.4052 68.5479L77.372 98.5422ZM13.0484 98.5422H27.628L48.5948 68.5305L52.5 62.9381L55.3638 58.8219L59.5468 52.83L59.8245 52.4132L63.747 46.8207L91.9343 6.45779H77.1464L56.4226 36.2437L52.5174 41.8535L51.4066 43.4339L47.241 49.4258L45.1582 52.4132L41.2529 58.0229L13.0484 98.5422ZM42.9018 44.4413L47.0674 38.4494L48.6121 36.2437L27.8883 6.45779H13.1005L41.2529 46.8207L42.9018 44.4413Z" fill="#627EEA"/>
</svg>
