<svg width="643" height="196" viewBox="0 0 643 196" fill="none" xmlns="http://www.w3.org/2000/svg">
<mask id="path-1-outside-1_41_3" maskUnits="userSpaceOnUse" x="141" y="44" width="290" height="105" fill="black">
<rect fill="white" x="141" y="44" width="290" height="105"/>
<path d="M204.844 67.92C204.844 72 203.404 75.528 200.524 78.504C197.644 81.432 193.444 83.544 187.924 84.84C190.9 85.656 193.156 87 194.692 88.872C196.228 90.696 196.996 92.808 196.996 95.208C196.996 99 195.796 102.288 193.396 105.072C191.044 107.856 187.588 110.016 183.028 111.552C178.468 113.04 172.972 113.784 166.54 113.784C164.14 113.784 162.22 113.712 160.78 113.568C160.732 114.912 160.156 115.92 159.052 116.592C157.948 117.264 156.532 117.6 154.804 117.6C153.076 117.6 151.876 117.216 151.204 116.448C150.58 115.68 150.316 114.552 150.412 113.064C150.844 106.344 151.684 99.312 152.932 91.968C154.18 84.576 155.764 77.448 157.684 70.584C158.02 69.384 158.692 68.544 159.7 68.064C160.708 67.584 162.028 67.344 163.66 67.344C166.588 67.344 168.052 68.16 168.052 69.792C168.052 70.464 167.908 71.232 167.62 72.096C166.372 75.84 165.124 80.928 163.876 87.36C162.628 93.744 161.74 99.84 161.212 105.648C163.516 105.84 165.388 105.936 166.828 105.936C173.548 105.936 178.468 104.976 181.588 103.056C184.756 101.088 186.34 98.592 186.34 95.568C186.34 93.456 185.428 91.68 183.604 90.24C181.828 88.8 178.828 88.008 174.604 87.864C173.644 87.816 172.972 87.576 172.588 87.144C172.204 86.712 172.012 86.016 172.012 85.056C172.012 83.664 172.3 82.536 172.876 81.672C173.452 80.808 174.508 80.352 176.044 80.304C179.452 80.208 182.524 79.704 185.26 78.792C188.044 77.88 190.228 76.608 191.812 74.976C193.396 73.296 194.188 71.352 194.188 69.144C194.188 66.36 192.82 64.176 190.084 62.592C187.348 60.96 183.148 60.144 177.484 60.144C172.348 60.144 167.38 60.816 162.58 62.16C157.78 63.456 153.7 65.112 150.34 67.128C148.804 68.04 147.508 68.496 146.452 68.496C145.588 68.496 144.916 68.208 144.436 67.632C144.004 67.008 143.788 66.24 143.788 65.328C143.788 64.128 144.028 63.096 144.508 62.232C145.036 61.368 146.26 60.384 148.18 59.28C152.212 56.976 156.94 55.176 162.364 53.88C167.788 52.584 173.332 51.936 178.996 51.936C187.684 51.936 194.164 53.4 198.436 56.328C202.708 59.256 204.844 63.12 204.844 67.92ZM211.296 114.36C209.136 114.36 207.36 113.376 205.968 111.408C204.624 109.392 203.952 106.896 203.952 103.92C203.952 100.32 204.192 97.032 204.672 94.056C205.152 91.032 205.944 87.84 207.048 84.48C207.528 83.04 208.2 82.008 209.064 81.384C209.928 80.76 211.296 80.448 213.168 80.448C214.224 80.448 214.944 80.616 215.328 80.952C215.76 81.288 215.976 81.792 215.976 82.464C215.976 82.848 215.712 84.144 215.184 86.352C214.704 88.128 214.32 89.736 214.032 91.176C213.072 96.216 212.592 99.576 212.592 101.256C212.592 102.264 212.712 102.984 212.952 103.416C213.192 103.8 213.576 103.992 214.104 103.992C214.824 103.992 215.712 103.272 216.768 101.832C217.872 100.392 219.024 98.208 220.224 95.28C221.472 92.352 222.672 88.752 223.824 84.48C224.208 83.04 224.784 82.008 225.552 81.384C226.368 80.76 227.568 80.448 229.152 80.448C230.256 80.448 231.024 80.592 231.456 80.88C231.888 81.12 232.104 81.6 232.104 82.32C232.104 83.52 231.504 86.808 230.304 92.184C228.96 98.328 228.288 102.12 228.288 103.56C228.288 104.472 228.48 105.192 228.864 105.72C229.248 106.2 229.752 106.44 230.376 106.44C231.336 106.44 232.464 105.864 233.76 104.712C235.104 103.512 236.88 101.592 239.088 98.952C239.664 98.28 240.312 97.944 241.032 97.944C241.656 97.944 242.136 98.232 242.472 98.808C242.856 99.384 243.048 100.176 243.048 101.184C243.048 103.104 242.592 104.592 241.68 105.648C239.616 108.192 237.384 110.28 234.984 111.912C232.632 113.544 229.944 114.36 226.92 114.36C224.616 114.36 222.912 113.472 221.808 111.696C220.752 109.92 220.224 107.424 220.224 104.208C219.408 107.472 218.184 109.992 216.552 111.768C214.92 113.496 213.168 114.36 211.296 114.36ZM262.41 80.448C263.514 80.448 264.282 80.592 264.714 80.88C265.146 81.168 265.362 81.648 265.362 82.32C265.362 83.472 264.738 87.576 263.49 94.632C262.386 101.4 261.738 105.408 261.546 106.656C259.77 118.992 257.322 128.76 254.202 135.96C251.082 143.16 246.93 146.76 241.746 146.76C239.298 146.76 237.306 145.992 235.77 144.456C234.234 142.968 233.466 141 233.466 138.552C233.466 136.296 233.97 133.992 234.978 131.64C236.034 129.288 237.954 126.576 240.738 123.504C243.57 120.48 247.554 117 252.69 113.064L252.906 111.408C253.242 109.632 253.626 107.088 254.058 103.776C253.098 107.232 251.754 109.872 250.026 111.696C248.298 113.472 246.474 114.36 244.554 114.36C242.394 114.36 240.618 113.376 239.226 111.408C237.882 109.392 237.21 106.896 237.21 103.92C237.21 100.32 237.45 97.032 237.93 94.056C238.41 91.032 239.202 87.84 240.306 84.48C240.786 83.04 241.458 82.008 242.322 81.384C243.186 80.76 244.554 80.448 246.426 80.448C247.482 80.448 248.202 80.616 248.586 80.952C249.018 81.288 249.234 81.792 249.234 82.464C249.234 82.848 248.97 84.144 248.442 86.352C247.962 88.128 247.578 89.736 247.29 91.176C246.906 93.144 246.57 95.04 246.282 96.864C245.994 98.64 245.85 100.104 245.85 101.256C245.85 103.08 246.354 103.992 247.362 103.992C248.082 103.992 248.97 103.272 250.026 101.832C251.13 100.392 252.282 98.208 253.482 95.28C254.73 92.352 255.93 88.752 257.082 84.48C257.466 83.04 258.042 82.008 258.81 81.384C259.626 80.76 260.826 80.448 262.41 80.448ZM242.538 139.776C243.738 139.776 245.082 138.384 246.57 135.6C248.058 132.816 249.546 128.184 251.034 121.704C247.338 124.824 244.65 127.656 242.97 130.2C241.338 132.792 240.522 135.048 240.522 136.968C240.522 137.784 240.666 138.456 240.954 138.984C241.29 139.512 241.818 139.776 242.538 139.776ZM307.616 90.6C309.968 91.512 311.912 92.4 313.448 93.264C315.032 94.128 316.352 95.304 317.408 96.792C318.512 98.28 319.064 100.104 319.064 102.264C319.064 105.624 317.744 108.384 315.104 110.544C312.512 112.704 309.032 113.952 304.664 114.288L303.8 121.344C303.704 122.064 303.344 122.616 302.72 123C302.144 123.432 301.472 123.648 300.704 123.648C299.984 123.648 299.384 123.432 298.904 123C298.472 122.616 298.304 122.064 298.4 121.344L299.336 114.144C295.832 113.664 293.048 112.512 290.984 110.688C288.968 108.864 287.96 106.704 287.96 104.208C287.96 102.528 288.392 101.232 289.256 100.32C290.12 99.408 291.152 98.952 292.352 98.952C293.552 98.952 294.44 99.288 295.016 99.96C295.592 100.632 296 101.688 296.24 103.128C296.384 104.232 296.792 105.168 297.464 105.936C298.184 106.656 299.12 107.16 300.272 107.448L301.712 96.648C299.504 95.784 297.608 94.896 296.024 93.984C294.488 93.024 293.192 91.776 292.136 90.24C291.128 88.656 290.624 86.712 290.624 84.408C290.624 80.856 291.968 77.976 294.656 75.768C297.344 73.56 300.752 72.312 304.88 72.024L305.744 64.824C305.792 64.104 306.104 63.552 306.68 63.168C307.256 62.784 307.904 62.592 308.624 62.592C309.344 62.592 309.944 62.808 310.424 63.24C310.952 63.624 311.168 64.152 311.072 64.824L310.064 72.24C313.136 72.72 315.56 73.776 317.336 75.408C319.112 77.04 320 79.08 320 81.528C320 83.16 319.568 84.384 318.704 85.2C317.888 85.968 316.856 86.352 315.608 86.352C314.6 86.352 313.76 86.04 313.088 85.416C312.464 84.792 312.128 83.952 312.08 82.896C311.936 80.88 310.976 79.56 309.2 78.936L307.616 90.6ZM298.904 83.832C298.904 84.84 299.24 85.728 299.912 86.496C300.584 87.216 301.544 87.912 302.792 88.584L304.016 78.648C302.384 78.888 301.112 79.464 300.2 80.376C299.336 81.288 298.904 82.44 298.904 83.832ZM305.456 107.664C307.136 107.424 308.432 106.92 309.344 106.152C310.256 105.336 310.712 104.304 310.712 103.056C310.712 102.096 310.352 101.256 309.632 100.536C308.96 99.816 307.952 99.144 306.608 98.52L305.456 107.664ZM364.67 91.896C365.294 91.896 365.774 92.208 366.11 92.832C366.446 93.456 366.614 94.248 366.614 95.208C366.614 96.408 366.446 97.344 366.11 98.016C365.774 98.64 365.246 99.072 364.526 99.312C361.646 100.32 358.478 100.896 355.022 101.04C354.062 105.024 352.238 108.24 349.55 110.688C346.91 113.136 343.982 114.36 340.766 114.36C335.918 114.36 332.39 112.512 330.182 108.816C327.974 105.12 326.87 99.768 326.87 92.76C326.87 86.568 327.638 79.848 329.174 72.6C330.71 65.304 332.942 59.112 335.87 54.024C338.846 48.888 342.374 46.32 346.454 46.32C348.662 46.32 350.438 47.28 351.782 49.2C353.126 51.072 353.798 53.52 353.798 56.544C353.798 60.48 353.054 64.392 351.566 68.28C350.078 72.168 347.606 76.248 344.15 80.52C347.366 80.76 349.982 82.104 351.998 84.552C354.014 86.952 355.214 89.928 355.598 93.48C357.854 93.336 360.542 92.856 363.662 92.04C363.95 91.944 364.286 91.896 364.67 91.896ZM344.798 53.448C343.838 53.448 342.782 54.888 341.63 57.768C340.526 60.6 339.494 64.464 338.534 69.36C337.574 74.256 336.854 79.608 336.374 85.416C339.542 79.608 342.062 74.496 343.934 70.08C345.854 65.616 346.814 61.656 346.814 58.2C346.814 56.664 346.622 55.488 346.238 54.672C345.902 53.856 345.422 53.448 344.798 53.448ZM341.054 106.728C342.542 106.728 343.862 106.104 345.014 104.856C346.166 103.608 346.934 101.808 347.318 99.456C345.83 98.448 344.678 97.128 343.862 95.496C343.094 93.864 342.71 92.136 342.71 90.312C342.71 89.64 342.806 88.728 342.998 87.576H342.782C340.814 87.576 339.158 88.56 337.814 90.528C336.518 92.448 335.87 95.04 335.87 98.304C335.87 101.04 336.374 103.128 337.382 104.568C338.438 106.008 339.662 106.728 341.054 106.728ZM369.829 75.696C367.813 75.696 366.301 75.24 365.293 74.328C364.285 73.368 363.781 72.048 363.781 70.368C363.781 68.688 364.429 67.296 365.725 66.192C367.069 65.04 368.725 64.464 370.693 64.464C372.469 64.464 373.909 64.896 375.013 65.76C376.117 66.624 376.669 67.848 376.669 69.432C376.669 71.352 376.045 72.888 374.797 74.04C373.549 75.144 371.893 75.696 369.829 75.696ZM369.253 114.36C366.133 114.36 363.853 113.256 362.413 111.048C361.021 108.84 360.325 105.912 360.325 102.264C360.325 100.104 360.589 97.344 361.117 93.984C361.693 90.576 362.413 87.408 363.277 84.48C363.709 82.944 364.285 81.888 365.005 81.312C365.725 80.736 366.877 80.448 368.461 80.448C370.909 80.448 372.133 81.264 372.133 82.896C372.133 84.096 371.677 86.88 370.765 91.248C369.613 96.528 369.037 100.104 369.037 101.976C369.037 103.416 369.229 104.52 369.613 105.288C369.997 106.056 370.645 106.44 371.557 106.44C372.421 106.44 373.501 105.84 374.797 104.64C376.093 103.44 377.821 101.544 379.981 98.952C380.557 98.28 381.205 97.944 381.925 97.944C382.549 97.944 383.029 98.232 383.365 98.808C383.749 99.384 383.941 100.176 383.941 101.184C383.941 103.104 383.485 104.592 382.573 105.648C377.821 111.456 373.381 114.36 369.253 114.36ZM416.42 91.896C417.044 91.896 417.524 92.208 417.86 92.832C418.196 93.456 418.364 94.248 418.364 95.208C418.364 96.408 418.196 97.344 417.86 98.016C417.524 98.64 416.996 99.072 416.276 99.312C413.396 100.32 410.228 100.896 406.772 101.04C405.812 105.024 403.988 108.24 401.3 110.688C398.66 113.136 395.732 114.36 392.516 114.36C387.668 114.36 384.14 112.512 381.932 108.816C379.724 105.12 378.62 99.768 378.62 92.76C378.62 86.568 379.388 79.848 380.924 72.6C382.46 65.304 384.692 59.112 387.62 54.024C390.596 48.888 394.124 46.32 398.204 46.32C400.412 46.32 402.188 47.28 403.532 49.2C404.876 51.072 405.548 53.52 405.548 56.544C405.548 60.48 404.804 64.392 403.316 68.28C401.828 72.168 399.356 76.248 395.9 80.52C399.116 80.76 401.732 82.104 403.748 84.552C405.764 86.952 406.964 89.928 407.348 93.48C409.604 93.336 412.292 92.856 415.412 92.04C415.7 91.944 416.036 91.896 416.42 91.896ZM396.548 53.448C395.588 53.448 394.532 54.888 393.38 57.768C392.276 60.6 391.244 64.464 390.284 69.36C389.324 74.256 388.604 79.608 388.124 85.416C391.292 79.608 393.812 74.496 395.684 70.08C397.604 65.616 398.564 61.656 398.564 58.2C398.564 56.664 398.372 55.488 397.988 54.672C397.652 53.856 397.172 53.448 396.548 53.448ZM392.804 106.728C394.292 106.728 395.612 106.104 396.764 104.856C397.916 103.608 398.684 101.808 399.068 99.456C397.58 98.448 396.428 97.128 395.612 95.496C394.844 93.864 394.46 92.136 394.46 90.312C394.46 89.64 394.556 88.728 394.748 87.576H394.532C392.564 87.576 390.908 88.56 389.564 90.528C388.268 92.448 387.62 95.04 387.62 98.304C387.62 101.04 388.124 103.128 389.132 104.568C390.188 106.008 391.412 106.728 392.804 106.728ZM422.083 75.696C420.067 75.696 418.555 75.24 417.547 74.328C416.539 73.368 416.035 72.048 416.035 70.368C416.035 68.688 416.683 67.296 417.979 66.192C419.323 65.04 420.979 64.464 422.947 64.464C424.723 64.464 426.163 64.896 427.267 65.76C428.371 66.624 428.923 67.848 428.923 69.432C428.923 71.352 428.299 72.888 427.051 74.04C425.803 75.144 424.147 75.696 422.083 75.696ZM415.171 114.36C413.635 114.36 412.579 114.048 412.003 113.424C411.427 112.8 411.139 111.816 411.139 110.472C411.139 110.088 411.187 109.416 411.283 108.456C412.051 99.672 413.323 91.68 415.099 84.48C415.483 82.992 416.107 81.96 416.971 81.384C417.883 80.76 419.323 80.448 421.291 80.448C423.355 80.448 424.387 81.288 424.387 82.968C424.387 83.208 424.339 83.664 424.243 84.336C422.083 94.608 420.787 103.224 420.355 110.184C420.259 111.72 419.803 112.8 418.987 113.424C418.171 114.048 416.899 114.36 415.171 114.36Z"/>
</mask>
<path d="M204.844 67.92C204.844 72 203.404 75.528 200.524 78.504C197.644 81.432 193.444 83.544 187.924 84.84C190.9 85.656 193.156 87 194.692 88.872C196.228 90.696 196.996 92.808 196.996 95.208C196.996 99 195.796 102.288 193.396 105.072C191.044 107.856 187.588 110.016 183.028 111.552C178.468 113.04 172.972 113.784 166.54 113.784C164.14 113.784 162.22 113.712 160.78 113.568C160.732 114.912 160.156 115.92 159.052 116.592C157.948 117.264 156.532 117.6 154.804 117.6C153.076 117.6 151.876 117.216 151.204 116.448C150.58 115.68 150.316 114.552 150.412 113.064C150.844 106.344 151.684 99.312 152.932 91.968C154.18 84.576 155.764 77.448 157.684 70.584C158.02 69.384 158.692 68.544 159.7 68.064C160.708 67.584 162.028 67.344 163.66 67.344C166.588 67.344 168.052 68.16 168.052 69.792C168.052 70.464 167.908 71.232 167.62 72.096C166.372 75.84 165.124 80.928 163.876 87.36C162.628 93.744 161.74 99.84 161.212 105.648C163.516 105.84 165.388 105.936 166.828 105.936C173.548 105.936 178.468 104.976 181.588 103.056C184.756 101.088 186.34 98.592 186.34 95.568C186.34 93.456 185.428 91.68 183.604 90.24C181.828 88.8 178.828 88.008 174.604 87.864C173.644 87.816 172.972 87.576 172.588 87.144C172.204 86.712 172.012 86.016 172.012 85.056C172.012 83.664 172.3 82.536 172.876 81.672C173.452 80.808 174.508 80.352 176.044 80.304C179.452 80.208 182.524 79.704 185.26 78.792C188.044 77.88 190.228 76.608 191.812 74.976C193.396 73.296 194.188 71.352 194.188 69.144C194.188 66.36 192.82 64.176 190.084 62.592C187.348 60.96 183.148 60.144 177.484 60.144C172.348 60.144 167.38 60.816 162.58 62.16C157.78 63.456 153.7 65.112 150.34 67.128C148.804 68.04 147.508 68.496 146.452 68.496C145.588 68.496 144.916 68.208 144.436 67.632C144.004 67.008 143.788 66.24 143.788 65.328C143.788 64.128 144.028 63.096 144.508 62.232C145.036 61.368 146.26 60.384 148.18 59.28C152.212 56.976 156.94 55.176 162.364 53.88C167.788 52.584 173.332 51.936 178.996 51.936C187.684 51.936 194.164 53.4 198.436 56.328C202.708 59.256 204.844 63.12 204.844 67.92ZM211.296 114.36C209.136 114.36 207.36 113.376 205.968 111.408C204.624 109.392 203.952 106.896 203.952 103.92C203.952 100.32 204.192 97.032 204.672 94.056C205.152 91.032 205.944 87.84 207.048 84.48C207.528 83.04 208.2 82.008 209.064 81.384C209.928 80.76 211.296 80.448 213.168 80.448C214.224 80.448 214.944 80.616 215.328 80.952C215.76 81.288 215.976 81.792 215.976 82.464C215.976 82.848 215.712 84.144 215.184 86.352C214.704 88.128 214.32 89.736 214.032 91.176C213.072 96.216 212.592 99.576 212.592 101.256C212.592 102.264 212.712 102.984 212.952 103.416C213.192 103.8 213.576 103.992 214.104 103.992C214.824 103.992 215.712 103.272 216.768 101.832C217.872 100.392 219.024 98.208 220.224 95.28C221.472 92.352 222.672 88.752 223.824 84.48C224.208 83.04 224.784 82.008 225.552 81.384C226.368 80.76 227.568 80.448 229.152 80.448C230.256 80.448 231.024 80.592 231.456 80.88C231.888 81.12 232.104 81.6 232.104 82.32C232.104 83.52 231.504 86.808 230.304 92.184C228.96 98.328 228.288 102.12 228.288 103.56C228.288 104.472 228.48 105.192 228.864 105.72C229.248 106.2 229.752 106.44 230.376 106.44C231.336 106.44 232.464 105.864 233.76 104.712C235.104 103.512 236.88 101.592 239.088 98.952C239.664 98.28 240.312 97.944 241.032 97.944C241.656 97.944 242.136 98.232 242.472 98.808C242.856 99.384 243.048 100.176 243.048 101.184C243.048 103.104 242.592 104.592 241.68 105.648C239.616 108.192 237.384 110.28 234.984 111.912C232.632 113.544 229.944 114.36 226.92 114.36C224.616 114.36 222.912 113.472 221.808 111.696C220.752 109.92 220.224 107.424 220.224 104.208C219.408 107.472 218.184 109.992 216.552 111.768C214.92 113.496 213.168 114.36 211.296 114.36ZM262.41 80.448C263.514 80.448 264.282 80.592 264.714 80.88C265.146 81.168 265.362 81.648 265.362 82.32C265.362 83.472 264.738 87.576 263.49 94.632C262.386 101.4 261.738 105.408 261.546 106.656C259.77 118.992 257.322 128.76 254.202 135.96C251.082 143.16 246.93 146.76 241.746 146.76C239.298 146.76 237.306 145.992 235.77 144.456C234.234 142.968 233.466 141 233.466 138.552C233.466 136.296 233.97 133.992 234.978 131.64C236.034 129.288 237.954 126.576 240.738 123.504C243.57 120.48 247.554 117 252.69 113.064L252.906 111.408C253.242 109.632 253.626 107.088 254.058 103.776C253.098 107.232 251.754 109.872 250.026 111.696C248.298 113.472 246.474 114.36 244.554 114.36C242.394 114.36 240.618 113.376 239.226 111.408C237.882 109.392 237.21 106.896 237.21 103.92C237.21 100.32 237.45 97.032 237.93 94.056C238.41 91.032 239.202 87.84 240.306 84.48C240.786 83.04 241.458 82.008 242.322 81.384C243.186 80.76 244.554 80.448 246.426 80.448C247.482 80.448 248.202 80.616 248.586 80.952C249.018 81.288 249.234 81.792 249.234 82.464C249.234 82.848 248.97 84.144 248.442 86.352C247.962 88.128 247.578 89.736 247.29 91.176C246.906 93.144 246.57 95.04 246.282 96.864C245.994 98.64 245.85 100.104 245.85 101.256C245.85 103.08 246.354 103.992 247.362 103.992C248.082 103.992 248.97 103.272 250.026 101.832C251.13 100.392 252.282 98.208 253.482 95.28C254.73 92.352 255.93 88.752 257.082 84.48C257.466 83.04 258.042 82.008 258.81 81.384C259.626 80.76 260.826 80.448 262.41 80.448ZM242.538 139.776C243.738 139.776 245.082 138.384 246.57 135.6C248.058 132.816 249.546 128.184 251.034 121.704C247.338 124.824 244.65 127.656 242.97 130.2C241.338 132.792 240.522 135.048 240.522 136.968C240.522 137.784 240.666 138.456 240.954 138.984C241.29 139.512 241.818 139.776 242.538 139.776ZM307.616 90.6C309.968 91.512 311.912 92.4 313.448 93.264C315.032 94.128 316.352 95.304 317.408 96.792C318.512 98.28 319.064 100.104 319.064 102.264C319.064 105.624 317.744 108.384 315.104 110.544C312.512 112.704 309.032 113.952 304.664 114.288L303.8 121.344C303.704 122.064 303.344 122.616 302.72 123C302.144 123.432 301.472 123.648 300.704 123.648C299.984 123.648 299.384 123.432 298.904 123C298.472 122.616 298.304 122.064 298.4 121.344L299.336 114.144C295.832 113.664 293.048 112.512 290.984 110.688C288.968 108.864 287.96 106.704 287.96 104.208C287.96 102.528 288.392 101.232 289.256 100.32C290.12 99.408 291.152 98.952 292.352 98.952C293.552 98.952 294.44 99.288 295.016 99.96C295.592 100.632 296 101.688 296.24 103.128C296.384 104.232 296.792 105.168 297.464 105.936C298.184 106.656 299.12 107.16 300.272 107.448L301.712 96.648C299.504 95.784 297.608 94.896 296.024 93.984C294.488 93.024 293.192 91.776 292.136 90.24C291.128 88.656 290.624 86.712 290.624 84.408C290.624 80.856 291.968 77.976 294.656 75.768C297.344 73.56 300.752 72.312 304.88 72.024L305.744 64.824C305.792 64.104 306.104 63.552 306.68 63.168C307.256 62.784 307.904 62.592 308.624 62.592C309.344 62.592 309.944 62.808 310.424 63.24C310.952 63.624 311.168 64.152 311.072 64.824L310.064 72.24C313.136 72.72 315.56 73.776 317.336 75.408C319.112 77.04 320 79.08 320 81.528C320 83.16 319.568 84.384 318.704 85.2C317.888 85.968 316.856 86.352 315.608 86.352C314.6 86.352 313.76 86.04 313.088 85.416C312.464 84.792 312.128 83.952 312.08 82.896C311.936 80.88 310.976 79.56 309.2 78.936L307.616 90.6ZM298.904 83.832C298.904 84.84 299.24 85.728 299.912 86.496C300.584 87.216 301.544 87.912 302.792 88.584L304.016 78.648C302.384 78.888 301.112 79.464 300.2 80.376C299.336 81.288 298.904 82.44 298.904 83.832ZM305.456 107.664C307.136 107.424 308.432 106.92 309.344 106.152C310.256 105.336 310.712 104.304 310.712 103.056C310.712 102.096 310.352 101.256 309.632 100.536C308.96 99.816 307.952 99.144 306.608 98.52L305.456 107.664ZM364.67 91.896C365.294 91.896 365.774 92.208 366.11 92.832C366.446 93.456 366.614 94.248 366.614 95.208C366.614 96.408 366.446 97.344 366.11 98.016C365.774 98.64 365.246 99.072 364.526 99.312C361.646 100.32 358.478 100.896 355.022 101.04C354.062 105.024 352.238 108.24 349.55 110.688C346.91 113.136 343.982 114.36 340.766 114.36C335.918 114.36 332.39 112.512 330.182 108.816C327.974 105.12 326.87 99.768 326.87 92.76C326.87 86.568 327.638 79.848 329.174 72.6C330.71 65.304 332.942 59.112 335.87 54.024C338.846 48.888 342.374 46.32 346.454 46.32C348.662 46.32 350.438 47.28 351.782 49.2C353.126 51.072 353.798 53.52 353.798 56.544C353.798 60.48 353.054 64.392 351.566 68.28C350.078 72.168 347.606 76.248 344.15 80.52C347.366 80.76 349.982 82.104 351.998 84.552C354.014 86.952 355.214 89.928 355.598 93.48C357.854 93.336 360.542 92.856 363.662 92.04C363.95 91.944 364.286 91.896 364.67 91.896ZM344.798 53.448C343.838 53.448 342.782 54.888 341.63 57.768C340.526 60.6 339.494 64.464 338.534 69.36C337.574 74.256 336.854 79.608 336.374 85.416C339.542 79.608 342.062 74.496 343.934 70.08C345.854 65.616 346.814 61.656 346.814 58.2C346.814 56.664 346.622 55.488 346.238 54.672C345.902 53.856 345.422 53.448 344.798 53.448ZM341.054 106.728C342.542 106.728 343.862 106.104 345.014 104.856C346.166 103.608 346.934 101.808 347.318 99.456C345.83 98.448 344.678 97.128 343.862 95.496C343.094 93.864 342.71 92.136 342.71 90.312C342.71 89.64 342.806 88.728 342.998 87.576H342.782C340.814 87.576 339.158 88.56 337.814 90.528C336.518 92.448 335.87 95.04 335.87 98.304C335.87 101.04 336.374 103.128 337.382 104.568C338.438 106.008 339.662 106.728 341.054 106.728ZM369.829 75.696C367.813 75.696 366.301 75.24 365.293 74.328C364.285 73.368 363.781 72.048 363.781 70.368C363.781 68.688 364.429 67.296 365.725 66.192C367.069 65.04 368.725 64.464 370.693 64.464C372.469 64.464 373.909 64.896 375.013 65.76C376.117 66.624 376.669 67.848 376.669 69.432C376.669 71.352 376.045 72.888 374.797 74.04C373.549 75.144 371.893 75.696 369.829 75.696ZM369.253 114.36C366.133 114.36 363.853 113.256 362.413 111.048C361.021 108.84 360.325 105.912 360.325 102.264C360.325 100.104 360.589 97.344 361.117 93.984C361.693 90.576 362.413 87.408 363.277 84.48C363.709 82.944 364.285 81.888 365.005 81.312C365.725 80.736 366.877 80.448 368.461 80.448C370.909 80.448 372.133 81.264 372.133 82.896C372.133 84.096 371.677 86.88 370.765 91.248C369.613 96.528 369.037 100.104 369.037 101.976C369.037 103.416 369.229 104.52 369.613 105.288C369.997 106.056 370.645 106.44 371.557 106.44C372.421 106.44 373.501 105.84 374.797 104.64C376.093 103.44 377.821 101.544 379.981 98.952C380.557 98.28 381.205 97.944 381.925 97.944C382.549 97.944 383.029 98.232 383.365 98.808C383.749 99.384 383.941 100.176 383.941 101.184C383.941 103.104 383.485 104.592 382.573 105.648C377.821 111.456 373.381 114.36 369.253 114.36ZM416.42 91.896C417.044 91.896 417.524 92.208 417.86 92.832C418.196 93.456 418.364 94.248 418.364 95.208C418.364 96.408 418.196 97.344 417.86 98.016C417.524 98.64 416.996 99.072 416.276 99.312C413.396 100.32 410.228 100.896 406.772 101.04C405.812 105.024 403.988 108.24 401.3 110.688C398.66 113.136 395.732 114.36 392.516 114.36C387.668 114.36 384.14 112.512 381.932 108.816C379.724 105.12 378.62 99.768 378.62 92.76C378.62 86.568 379.388 79.848 380.924 72.6C382.46 65.304 384.692 59.112 387.62 54.024C390.596 48.888 394.124 46.32 398.204 46.32C400.412 46.32 402.188 47.28 403.532 49.2C404.876 51.072 405.548 53.52 405.548 56.544C405.548 60.48 404.804 64.392 403.316 68.28C401.828 72.168 399.356 76.248 395.9 80.52C399.116 80.76 401.732 82.104 403.748 84.552C405.764 86.952 406.964 89.928 407.348 93.48C409.604 93.336 412.292 92.856 415.412 92.04C415.7 91.944 416.036 91.896 416.42 91.896ZM396.548 53.448C395.588 53.448 394.532 54.888 393.38 57.768C392.276 60.6 391.244 64.464 390.284 69.36C389.324 74.256 388.604 79.608 388.124 85.416C391.292 79.608 393.812 74.496 395.684 70.08C397.604 65.616 398.564 61.656 398.564 58.2C398.564 56.664 398.372 55.488 397.988 54.672C397.652 53.856 397.172 53.448 396.548 53.448ZM392.804 106.728C394.292 106.728 395.612 106.104 396.764 104.856C397.916 103.608 398.684 101.808 399.068 99.456C397.58 98.448 396.428 97.128 395.612 95.496C394.844 93.864 394.46 92.136 394.46 90.312C394.46 89.64 394.556 88.728 394.748 87.576H394.532C392.564 87.576 390.908 88.56 389.564 90.528C388.268 92.448 387.62 95.04 387.62 98.304C387.62 101.04 388.124 103.128 389.132 104.568C390.188 106.008 391.412 106.728 392.804 106.728ZM422.083 75.696C420.067 75.696 418.555 75.24 417.547 74.328C416.539 73.368 416.035 72.048 416.035 70.368C416.035 68.688 416.683 67.296 417.979 66.192C419.323 65.04 420.979 64.464 422.947 64.464C424.723 64.464 426.163 64.896 427.267 65.76C428.371 66.624 428.923 67.848 428.923 69.432C428.923 71.352 428.299 72.888 427.051 74.04C425.803 75.144 424.147 75.696 422.083 75.696ZM415.171 114.36C413.635 114.36 412.579 114.048 412.003 113.424C411.427 112.8 411.139 111.816 411.139 110.472C411.139 110.088 411.187 109.416 411.283 108.456C412.051 99.672 413.323 91.68 415.099 84.48C415.483 82.992 416.107 81.96 416.971 81.384C417.883 80.76 419.323 80.448 421.291 80.448C423.355 80.448 424.387 81.288 424.387 82.968C424.387 83.208 424.339 83.664 424.243 84.336C422.083 94.608 420.787 103.224 420.355 110.184C420.259 111.72 419.803 112.8 418.987 113.424C418.171 114.048 416.899 114.36 415.171 114.36Z" fill="white"/>
<path d="M200.524 78.504L201.95 79.9065L201.955 79.9007L201.961 79.8948L200.524 78.504ZM187.924 84.84L187.467 82.8929L187.395 86.7688L187.924 84.84ZM194.692 88.872L193.146 90.1406L193.154 90.1505L193.162 90.1603L194.692 88.872ZM193.396 105.072L191.881 103.766L191.874 103.774L191.868 103.781L193.396 105.072ZM183.028 111.552L183.648 113.453L183.657 113.45L183.666 113.447L183.028 111.552ZM160.78 113.568L160.979 111.578L158.857 111.366L158.781 113.497L160.78 113.568ZM159.052 116.592L158.012 114.884L159.052 116.592ZM151.204 116.448L149.651 117.709L149.674 117.738L149.699 117.765L151.204 116.448ZM150.412 113.064L152.408 113.193L152.408 113.192L150.412 113.064ZM152.932 91.968L154.903 92.3031L154.904 92.3009L152.932 91.968ZM157.684 70.584L155.758 70.0447L155.758 70.0452L157.684 70.584ZM159.7 68.064L158.84 66.2583L159.7 68.064ZM167.62 72.096L165.722 71.4635L167.62 72.096ZM163.876 87.36L165.839 87.7437L165.839 87.741L163.876 87.36ZM161.212 105.648L159.22 105.467L159.037 107.474L161.046 107.641L161.212 105.648ZM181.588 103.056L182.636 104.759L182.643 104.755L181.588 103.056ZM183.604 90.24L182.344 91.7935L182.354 91.8017L182.364 91.8098L183.604 90.24ZM174.604 87.864L174.504 89.8615L174.52 89.8623L174.536 89.8628L174.604 87.864ZM172.588 87.144L171.093 88.4727H171.093L172.588 87.144ZM172.876 81.672L171.212 80.5626V80.5626L172.876 81.672ZM176.044 80.304L175.987 78.3048L175.981 78.305L176.044 80.304ZM185.26 78.792L184.637 76.8914L184.627 76.8946L185.26 78.792ZM191.812 74.976L193.247 76.3689L193.257 76.3586L193.267 76.348L191.812 74.976ZM190.084 62.592L189.059 64.3096L189.07 64.3163L189.082 64.3228L190.084 62.592ZM162.58 62.16L163.101 64.0909L163.11 64.0884L163.119 64.0859L162.58 62.16ZM150.34 67.128L151.361 68.8477L151.369 68.843L150.34 67.128ZM144.436 67.632L142.791 68.7704L142.842 68.8438L142.899 68.9124L144.436 67.632ZM144.508 62.232L142.801 61.1891L142.779 61.2245L142.759 61.2607L144.508 62.232ZM148.18 59.28L147.187 57.5435L147.183 57.5462L148.18 59.28ZM162.364 53.88L162.828 55.8252L162.364 53.88ZM198.436 56.328L199.566 54.6783L198.436 56.328ZM202.844 67.92C202.844 71.4723 201.612 74.5039 199.086 77.1132L201.961 79.8948C205.196 76.5521 206.844 72.5277 206.844 67.92H202.844ZM199.098 77.1015C196.566 79.676 192.753 81.6517 187.467 82.8929L188.381 86.7871C194.134 85.4363 198.722 83.188 201.95 79.9065L199.098 77.1015ZM187.395 86.7688C190.081 87.5054 191.936 88.6666 193.146 90.1406L196.238 87.6034C194.375 85.3334 191.718 83.8066 188.453 82.9112L187.395 86.7688ZM193.162 90.1603C194.392 91.6211 194.996 93.2761 194.996 95.208H198.996C198.996 92.3399 198.063 89.7709 196.221 87.5837L193.162 90.1603ZM194.996 95.208C194.996 98.5372 193.957 101.358 191.881 103.766L194.91 106.378C197.634 103.218 198.996 99.4628 198.996 95.208H194.996ZM191.868 103.781C189.816 106.211 186.711 108.201 182.389 109.657L183.666 113.447C188.464 111.831 192.272 109.501 194.923 106.363L191.868 103.781ZM182.407 109.651C178.103 111.055 172.828 111.784 166.54 111.784V115.784C173.115 115.784 178.833 115.025 183.648 113.453L182.407 109.651ZM166.54 111.784C164.169 111.784 162.324 111.712 160.979 111.578L160.581 115.558C162.116 115.712 164.11 115.784 166.54 115.784V111.784ZM158.781 113.497C158.756 114.201 158.514 114.578 158.012 114.884L160.092 118.3C161.798 117.262 162.708 115.623 162.778 113.639L158.781 113.497ZM158.012 114.884C157.31 115.311 156.285 115.6 154.804 115.6V119.6C156.779 119.6 158.586 119.217 160.092 118.3L158.012 114.884ZM154.804 115.6C153.269 115.6 152.806 115.242 152.709 115.131L149.699 117.765C150.945 119.19 152.882 119.6 154.804 119.6V115.6ZM152.756 115.187C152.578 114.968 152.328 114.427 152.408 113.193L148.416 112.935C148.303 114.677 148.582 116.392 149.651 117.709L152.756 115.187ZM152.408 113.192C152.835 106.548 153.666 99.5857 154.903 92.3031L150.96 91.6329C149.701 99.0383 148.853 106.14 148.416 112.936L152.408 113.192ZM154.904 92.3009C156.141 84.9748 157.71 77.9156 159.61 71.1228L155.758 70.0452C153.818 76.9804 152.219 84.1772 150.96 91.635L154.904 92.3009ZM159.61 71.1233C159.81 70.4073 160.137 70.0708 160.56 69.8697L158.84 66.2583C157.246 67.0172 156.229 68.3607 155.758 70.0447L159.61 71.1233ZM160.56 69.8697C161.204 69.5627 162.199 69.344 163.66 69.344V65.344C161.857 65.344 160.211 65.6053 158.84 66.2583L160.56 69.8697ZM163.66 69.344C165.003 69.344 165.692 69.5426 165.98 69.703C166.094 69.7663 166.087 69.7917 166.061 69.7475C166.033 69.7006 166.052 69.6924 166.052 69.792H170.052C170.052 69.0756 169.888 68.3534 169.494 67.6945C169.101 67.0383 168.546 66.5537 167.927 66.209C166.751 65.5534 165.244 65.344 163.66 65.344V69.344ZM166.052 69.792C166.052 70.1879 165.965 70.736 165.722 71.4635L169.517 72.7285C169.851 71.728 170.052 70.7401 170.052 69.792H166.052ZM165.722 71.4635C164.435 75.3258 163.168 80.5095 161.912 86.979L165.839 87.741C167.08 81.3465 168.308 76.3542 169.517 72.7285L165.722 71.4635ZM161.913 86.9763C160.653 93.4198 159.755 99.5837 159.22 105.467L163.203 105.829C163.725 100.096 164.602 94.0682 165.839 87.7437L161.913 86.9763ZM161.046 107.641C163.376 107.835 165.309 107.936 166.828 107.936V103.936C165.466 103.936 163.655 103.845 161.378 103.655L161.046 107.641ZM166.828 107.936C173.654 107.936 179.033 106.976 182.636 104.759L180.539 101.353C177.902 102.976 173.441 103.936 166.828 103.936V107.936ZM182.643 104.755C186.24 102.52 188.34 99.4512 188.34 95.568H184.34C184.34 97.7328 183.271 99.6558 180.532 101.357L182.643 104.755ZM188.34 95.568C188.34 92.777 187.092 90.446 184.843 88.6702L182.364 91.8098C183.763 92.914 184.34 94.135 184.34 95.568H188.34ZM184.863 88.6865C182.564 86.8224 179.01 86.013 174.672 85.8652L174.536 89.8628C178.645 90.003 181.091 90.7776 182.344 91.7935L184.863 88.6865ZM174.704 85.8665C174.356 85.8491 174.153 85.8004 174.052 85.7645C173.959 85.7313 174.005 85.7279 174.082 85.8153L171.093 88.4727C172.008 89.5023 173.345 89.8036 174.504 89.8615L174.704 85.8665ZM174.082 85.8153C174.138 85.8781 174.118 85.8907 174.084 85.7661C174.048 85.6376 174.012 85.4115 174.012 85.056H170.012C170.012 86.2044 170.227 87.499 171.093 88.4727L174.082 85.8153ZM174.012 85.056C174.012 83.9273 174.246 83.2223 174.54 82.7814L171.212 80.5626C170.353 81.8497 170.012 83.4007 170.012 85.056H174.012ZM174.54 82.7814C174.608 82.6792 174.89 82.341 176.106 82.303L175.981 78.305C174.125 78.363 172.295 78.9368 171.212 80.5626L174.54 82.7814ZM176.1 82.3032C179.669 82.2027 182.94 81.6735 185.892 80.6894L184.627 76.8946C182.107 77.7345 179.234 78.2133 175.987 78.3048L176.1 82.3032ZM185.882 80.6926C188.888 79.7079 191.381 78.2908 193.247 76.3689L190.376 73.583C189.074 74.9251 187.199 76.0521 184.637 76.8914L185.882 80.6926ZM193.267 76.348C195.183 74.3156 196.188 71.8873 196.188 69.144H192.188C192.188 70.8167 191.608 72.2764 190.356 73.604L193.267 76.348ZM196.188 69.144C196.188 65.5373 194.339 62.7445 191.086 60.8611L189.082 64.3228C191.3 65.6075 192.188 67.1827 192.188 69.144H196.188ZM191.108 60.8744C187.905 58.9638 183.266 58.144 177.484 58.144V62.144C183.03 62.144 186.79 62.9562 189.059 64.3096L191.108 60.8744ZM177.484 58.144C172.171 58.144 167.021 58.8394 162.04 60.2341L163.119 64.0859C167.738 62.7926 172.524 62.144 177.484 62.144V58.144ZM162.058 60.2291C157.125 61.561 152.865 63.2805 149.311 65.413L151.369 68.843C154.534 66.9435 158.434 65.351 163.101 64.0909L162.058 60.2291ZM149.319 65.4083C147.903 66.2489 146.979 66.496 146.452 66.496V70.496C148.037 70.496 149.705 69.8311 151.361 68.8477L149.319 65.4083ZM146.452 66.496C146.08 66.496 146.012 66.3993 145.972 66.3516L142.899 68.9124C143.819 70.0166 145.095 70.496 146.452 70.496V66.496ZM146.08 66.4936C145.923 66.2667 145.788 65.9168 145.788 65.328H141.788C141.788 66.5632 142.084 67.7493 142.791 68.7704L146.08 66.4936ZM145.788 65.328C145.788 64.3955 145.973 63.7128 146.256 63.2033L142.759 61.2607C142.082 62.4792 141.788 63.8605 141.788 65.328H145.788ZM146.214 63.2749C146.457 62.8783 147.279 62.1048 149.177 61.0138L147.183 57.5462C145.24 58.6632 143.615 59.8577 142.801 61.1891L146.214 63.2749ZM149.172 61.0165C153.01 58.8235 157.553 57.0856 162.828 55.8252L161.899 51.9348C156.326 53.2664 151.414 55.1285 147.187 57.5435L149.172 61.0165ZM162.828 55.8252C168.098 54.5662 173.486 53.936 178.996 53.936V49.936C173.178 49.936 167.478 50.6018 161.899 51.9348L162.828 55.8252ZM178.996 53.936C187.526 53.936 193.523 55.3856 197.305 57.9777L199.566 54.6783C194.804 51.4143 187.842 49.936 178.996 49.936V53.936ZM197.305 57.9777C201.084 60.5676 202.844 63.8388 202.844 67.92H206.844C206.844 62.4012 204.332 57.9444 199.566 54.6783L197.305 57.9777ZM205.968 111.408L204.304 112.517L204.319 112.54L204.335 112.563L205.968 111.408ZM204.672 94.056L206.647 94.3745L206.647 94.3695L204.672 94.056ZM207.048 84.48L205.151 83.8475L205.148 83.8557L207.048 84.48ZM209.064 81.384L210.235 83.0054V83.0054L209.064 81.384ZM215.328 80.952L214.011 82.4572L214.055 82.4952L214.1 82.5307L215.328 80.952ZM215.184 86.352L217.115 86.8738L217.122 86.8456L217.129 86.8171L215.184 86.352ZM214.032 91.176L212.071 90.7838L212.069 90.7928L212.067 90.8018L214.032 91.176ZM212.952 103.416L211.204 104.387L211.229 104.432L211.256 104.476L212.952 103.416ZM216.768 101.832L215.181 100.615L215.168 100.632L215.155 100.649L216.768 101.832ZM220.224 95.28L218.384 94.4958L218.379 94.5086L218.373 94.5216L220.224 95.28ZM223.824 84.48L225.755 85.0007L225.757 84.9953L223.824 84.48ZM225.552 81.384L224.337 79.7953L224.314 79.8132L224.291 79.8318L225.552 81.384ZM231.456 80.88L230.347 82.5441L230.414 82.589L230.485 82.6283L231.456 80.88ZM230.304 92.184L228.352 91.7483L228.35 91.7566L230.304 92.184ZM228.864 105.72L227.247 106.896L227.274 106.934L227.302 106.969L228.864 105.72ZM233.76 104.712L235.089 106.207L235.092 106.204L233.76 104.712ZM239.088 98.952L237.57 97.6504L237.562 97.6596L237.554 97.6689L239.088 98.952ZM242.472 98.808L240.745 99.8157L240.775 99.8675L240.808 99.9174L242.472 98.808ZM241.68 105.648L240.166 104.341L240.146 104.364L240.127 104.388L241.68 105.648ZM234.984 111.912L233.859 110.258L233.852 110.263L233.844 110.269L234.984 111.912ZM221.808 111.696L220.089 112.718L220.099 112.735L220.11 112.752L221.808 111.696ZM220.224 104.208H222.224L218.284 103.723L220.224 104.208ZM216.552 111.768L218.006 113.141L218.016 113.131L218.025 113.121L216.552 111.768ZM211.296 112.36C209.868 112.36 208.669 111.762 207.601 110.253L204.335 112.563C206.052 114.99 208.404 116.36 211.296 116.36V112.36ZM207.632 110.299C206.553 108.679 205.952 106.592 205.952 103.92H201.952C201.952 107.2 202.696 110.105 204.304 112.517L207.632 110.299ZM205.952 103.92C205.952 100.407 206.186 97.2273 206.647 94.3745L202.698 93.7375C202.198 96.8367 201.952 100.233 201.952 103.92H205.952ZM206.647 94.3695C207.108 91.4657 207.872 88.3781 208.948 85.1043L205.148 83.8557C204.016 87.3019 203.196 90.5983 202.697 93.7425L206.647 94.3695ZM208.945 85.1125C209.347 83.9073 209.828 83.2997 210.235 83.0054L207.893 79.7626C206.573 80.7163 205.709 82.1727 205.151 83.8475L208.945 85.1125ZM210.235 83.0054C210.585 82.7527 211.435 82.448 213.168 82.448V78.448C211.157 78.448 209.271 78.7673 207.893 79.7626L210.235 83.0054ZM213.168 82.448C213.602 82.448 213.883 82.4837 214.046 82.5217C214.22 82.5623 214.152 82.5804 214.011 82.4572L216.645 79.4468C215.666 78.5906 214.275 78.448 213.168 78.448V82.448ZM214.1 82.5307C214.079 82.5144 214.053 82.4898 214.028 82.4571C214.003 82.4244 213.986 82.3933 213.976 82.3698C213.956 82.3235 213.976 82.3394 213.976 82.464H217.976C217.976 81.3307 217.586 80.1746 216.556 79.3733L214.1 82.5307ZM213.976 82.464C213.976 82.4143 213.961 82.6228 213.818 83.3248C213.693 83.9406 213.501 84.7917 213.239 85.8869L217.129 86.8171C217.395 85.7043 217.599 84.8034 217.738 84.1232C217.859 83.5292 217.976 82.8977 217.976 82.464H213.976ZM213.253 85.8302C212.765 87.6389 212.369 89.291 212.071 90.7838L215.993 91.5682C216.271 90.181 216.644 88.6171 217.115 86.8738L213.253 85.8302ZM212.067 90.8018C211.114 95.8076 210.592 99.3549 210.592 101.256H214.592C214.592 99.7971 215.03 96.6244 215.997 91.5502L212.067 90.8018ZM210.592 101.256C210.592 102.319 210.701 103.482 211.204 104.387L214.7 102.445C214.731 102.5 214.694 102.455 214.655 102.223C214.618 102.004 214.592 101.688 214.592 101.256H210.592ZM211.256 104.476C211.928 105.55 213.021 105.992 214.104 105.992V101.992C214.08 101.992 214.172 101.988 214.315 102.059C214.47 102.137 214.584 102.254 214.648 102.356L211.256 104.476ZM214.104 105.992C215.124 105.992 215.966 105.495 216.57 105.006C217.199 104.495 217.801 103.805 218.381 103.015L215.155 100.649C214.679 101.299 214.309 101.689 214.05 101.898C213.766 102.129 213.804 101.992 214.104 101.992V105.992ZM218.355 103.049C219.618 101.402 220.849 99.0281 222.075 96.0384L218.373 94.5216C217.199 97.3879 216.126 99.3823 215.181 100.615L218.355 103.049ZM222.064 96.0642C223.359 93.0248 224.587 89.3307 225.755 85.0007L221.893 83.9593C220.757 88.1733 219.585 91.6792 218.384 94.4958L222.064 96.0642ZM225.757 84.9953C226.084 83.768 226.501 83.1901 226.813 82.9362L224.291 79.8318C223.067 80.8259 222.332 82.312 221.892 83.9647L225.757 84.9953ZM226.767 82.9727C227.09 82.7255 227.783 82.448 229.152 82.448V78.448C227.353 78.448 225.646 78.7945 224.337 79.7953L226.767 82.9727ZM229.152 82.448C229.627 82.448 229.963 82.4797 230.188 82.5217C230.428 82.5668 230.439 82.6053 230.347 82.5441L232.565 79.2159C231.599 78.5714 230.295 78.448 229.152 78.448V82.448ZM230.485 82.6283C230.404 82.5832 230.323 82.5206 230.253 82.4429C230.184 82.3663 230.142 82.2932 230.118 82.2407C230.076 82.1462 230.104 82.145 230.104 82.32H234.104C234.104 81.2414 233.761 79.8727 232.427 79.1317L230.485 82.6283ZM230.104 82.32C230.104 82.7123 229.99 83.6626 229.687 85.327C229.393 86.9343 228.95 89.0718 228.352 91.7483L232.256 92.6197C232.859 89.9202 233.315 87.7257 233.622 86.045C233.918 84.4214 234.104 83.1277 234.104 82.32H230.104ZM228.35 91.7566C227.676 94.8406 227.165 97.3537 226.823 99.287C226.489 101.169 226.288 102.64 226.288 103.56H230.288C230.288 103.04 230.423 101.895 230.761 99.985C231.091 98.1263 231.589 95.6714 232.258 92.6114L228.35 91.7566ZM226.288 103.56C226.288 104.731 226.533 105.915 227.247 106.896L230.482 104.544C230.428 104.469 230.288 104.213 230.288 103.56H226.288ZM227.302 106.969C228.073 107.932 229.155 108.44 230.376 108.44V104.44C230.349 104.44 230.34 104.437 230.347 104.439C230.354 104.44 230.37 104.445 230.39 104.454C230.41 104.464 230.425 104.474 230.434 104.481C230.443 104.488 230.439 104.487 230.426 104.471L227.302 106.969ZM230.376 108.44C232.091 108.44 233.691 107.449 235.089 106.207L232.431 103.217C231.237 104.279 230.581 104.44 230.376 104.44V108.44ZM235.092 106.204C236.547 104.905 238.397 102.895 240.622 100.235L237.554 97.6689C235.363 100.289 233.661 102.119 232.428 103.22L235.092 106.204ZM240.607 100.254C240.762 100.072 240.873 99.9991 240.927 99.9715C240.97 99.9489 240.997 99.944 241.032 99.944V95.944C239.597 95.944 238.431 96.6458 237.57 97.6504L240.607 100.254ZM241.032 99.944C241.034 99.944 241.01 99.944 240.968 99.9332C240.925 99.9221 240.878 99.9029 240.831 99.875C240.732 99.8155 240.714 99.763 240.745 99.8157L244.2 97.8003C243.535 96.6613 242.425 95.944 241.032 95.944V99.944ZM240.808 99.9174C240.894 100.047 241.048 100.4 241.048 101.184H245.048C245.048 99.9521 244.818 98.7212 244.136 97.6986L240.808 99.9174ZM241.048 101.184C241.048 102.804 240.664 103.765 240.166 104.341L243.194 106.955C244.52 105.419 245.048 103.404 245.048 101.184H241.048ZM240.127 104.388C238.17 106.8 236.079 108.749 233.859 110.258L236.109 113.566C238.689 111.811 241.062 109.584 243.233 106.908L240.127 104.388ZM233.844 110.269C231.846 111.655 229.561 112.36 226.92 112.36V116.36C230.327 116.36 233.418 115.433 236.124 113.555L233.844 110.269ZM226.92 112.36C225.223 112.36 224.203 111.761 223.507 110.64L220.11 112.752C221.621 115.183 224.009 116.36 226.92 116.36V112.36ZM223.527 110.674C222.73 109.334 222.224 107.247 222.224 104.208H218.224C218.224 107.601 218.774 110.506 220.089 112.718L223.527 110.674ZM218.284 103.723C217.519 106.784 216.414 108.962 215.079 110.415L218.025 113.121C219.954 111.022 221.298 108.16 222.164 104.693L218.284 103.723ZM215.098 110.395C213.736 111.837 212.478 112.36 211.296 112.36V116.36C213.858 116.36 216.104 115.155 218.006 113.141L215.098 110.395ZM264.714 80.88L263.604 82.5441L263.605 82.5441L264.714 80.88ZM263.49 94.632L261.52 94.2837L261.518 94.2968L261.516 94.31L263.49 94.632ZM261.546 106.656L259.569 106.352L259.568 106.361L259.566 106.371L261.546 106.656ZM235.77 144.456L237.184 143.042L237.173 143.031L237.161 143.02L235.77 144.456ZM234.978 131.64L233.153 130.821L233.146 130.836L233.14 130.852L234.978 131.64ZM240.738 123.504L239.278 122.137L239.267 122.149L239.256 122.161L240.738 123.504ZM252.69 113.064L253.906 114.651L254.566 114.146L254.673 113.323L252.69 113.064ZM252.906 111.408L250.941 111.036L250.93 111.093L250.923 111.149L252.906 111.408ZM254.058 103.776L256.041 104.035L252.131 103.241L254.058 103.776ZM250.026 111.696L251.459 113.091L251.469 113.081L251.478 113.071L250.026 111.696ZM239.226 111.408L237.562 112.517L237.577 112.54L237.593 112.563L239.226 111.408ZM237.93 94.056L239.904 94.3745L239.905 94.3695L237.93 94.056ZM240.306 84.48L238.409 83.8475L238.406 83.8557L240.306 84.48ZM242.322 81.384L243.493 83.0054V83.0054L242.322 81.384ZM248.586 80.952L247.269 82.4572L247.312 82.4952L247.358 82.5307L248.586 80.952ZM248.442 86.352L250.373 86.8738L250.38 86.8456L250.387 86.8171L248.442 86.352ZM247.29 91.176L245.329 90.7838L245.327 90.793L247.29 91.176ZM246.282 96.864L248.256 97.1841L248.257 97.1759L246.282 96.864ZM250.026 101.832L248.439 100.615L248.426 100.632L248.413 100.649L250.026 101.832ZM253.482 95.28L251.642 94.4958L251.637 94.5086L251.631 94.5216L253.482 95.28ZM257.082 84.48L259.013 85.0007L259.014 84.9953L257.082 84.48ZM258.81 81.384L257.595 79.7953L257.572 79.8132L257.549 79.8318L258.81 81.384ZM251.034 121.704L252.983 122.152L254.325 116.309L249.744 120.176L251.034 121.704ZM242.97 130.2L241.301 129.098L241.289 129.116L241.277 129.134L242.97 130.2ZM240.954 138.984L239.198 139.942L239.23 140.001L239.267 140.058L240.954 138.984ZM262.41 82.448C262.884 82.448 263.221 82.4797 263.445 82.5217C263.686 82.5668 263.696 82.6053 263.604 82.5441L265.823 79.2159C264.857 78.5714 263.552 78.448 262.41 78.448V82.448ZM263.605 82.5441C263.561 82.5152 263.513 82.4744 263.469 82.4217C263.425 82.3692 263.395 82.3179 263.376 82.2767C263.341 82.1978 263.362 82.1915 263.362 82.32H267.362C267.362 81.1997 266.973 79.9824 265.823 79.2159L263.605 82.5441ZM263.362 82.32C263.362 82.7134 263.236 83.864 262.917 85.9614C262.608 87.9901 262.143 90.7619 261.52 94.2837L265.459 94.9803C266.084 91.446 266.556 88.6379 266.871 86.5626C267.176 84.556 267.362 83.0786 267.362 82.32H263.362ZM261.516 94.31C260.413 101.073 259.763 105.093 259.569 106.352L263.523 106.96C263.713 105.723 264.359 101.727 265.464 94.954L261.516 94.31ZM259.566 106.371C257.803 118.621 255.387 128.194 252.367 135.165L256.037 136.755C259.256 129.326 261.737 119.363 263.525 106.941L259.566 106.371ZM252.367 135.165C249.378 142.062 245.752 144.76 241.746 144.76V148.76C248.108 148.76 252.786 144.258 256.037 136.755L252.367 135.165ZM241.746 144.76C239.755 144.76 238.296 144.154 237.184 143.042L234.356 145.87C236.316 147.83 238.841 148.76 241.746 148.76V144.76ZM237.161 143.02C236.072 141.964 235.466 140.544 235.466 138.552H231.466C231.466 141.456 232.396 143.972 234.378 145.892L237.161 143.02ZM235.466 138.552C235.466 136.601 235.901 134.564 236.816 132.428L233.14 130.852C232.039 133.42 231.466 135.991 231.466 138.552H235.466ZM236.802 132.459C237.736 130.379 239.502 127.846 242.22 124.847L239.256 122.161C236.406 125.306 234.331 128.197 233.153 130.821L236.802 132.459ZM242.198 124.871C244.925 121.958 248.815 118.553 253.906 114.651L251.473 111.477C246.293 115.447 242.214 119.002 239.278 122.137L242.198 124.871ZM254.673 113.323L254.889 111.667L250.923 111.149L250.707 112.805L254.673 113.323ZM254.871 111.78C255.218 109.947 255.608 107.359 256.041 104.035L252.075 103.517C251.644 106.817 251.266 109.317 250.941 111.036L254.871 111.78ZM252.131 103.241C251.223 106.508 250.002 108.813 248.574 110.321L251.478 113.071C253.506 110.931 254.973 107.956 255.985 104.311L252.131 103.241ZM248.592 110.301C247.126 111.808 245.789 112.36 244.554 112.36V116.36C247.159 116.36 249.47 115.136 251.459 113.091L248.592 110.301ZM244.554 112.36C243.126 112.36 241.926 111.762 240.859 110.253L237.593 112.563C239.309 114.99 241.662 116.36 244.554 116.36V112.36ZM240.89 110.299C239.81 108.679 239.21 106.592 239.21 103.92H235.21C235.21 107.2 235.953 110.105 237.562 112.517L240.89 110.299ZM239.21 103.92C239.21 100.407 239.444 97.2273 239.904 94.3745L235.955 93.7375C235.456 96.8367 235.21 100.233 235.21 103.92H239.21ZM239.905 94.3695C240.366 91.4657 241.13 88.3781 242.206 85.1043L238.406 83.8557C237.274 87.3019 236.454 90.5983 235.955 93.7425L239.905 94.3695ZM242.203 85.1125C242.605 83.9073 243.085 83.2997 243.493 83.0054L241.151 79.7626C239.83 80.7163 238.967 82.1727 238.409 83.8475L242.203 85.1125ZM243.493 83.0054C243.843 82.7527 244.693 82.448 246.426 82.448V78.448C244.415 78.448 242.529 78.7673 241.151 79.7626L243.493 83.0054ZM246.426 82.448C246.86 82.448 247.141 82.4837 247.303 82.5217C247.478 82.5623 247.41 82.5804 247.269 82.4572L249.903 79.4468C248.924 78.5906 247.532 78.448 246.426 78.448V82.448ZM247.358 82.5307C247.337 82.5144 247.311 82.4898 247.286 82.4571C247.261 82.4244 247.244 82.3933 247.234 82.3698C247.214 82.3235 247.234 82.3394 247.234 82.464H251.234C251.234 81.3307 250.844 80.1746 249.814 79.3733L247.358 82.5307ZM247.234 82.464C247.234 82.4143 247.219 82.6228 247.076 83.3248C246.951 83.9406 246.759 84.7917 246.497 85.8869L250.387 86.8171C250.653 85.7043 250.857 84.8034 250.996 84.1232C251.117 83.5292 251.234 82.8977 251.234 82.464H247.234ZM246.511 85.8302C246.022 87.6389 245.627 89.291 245.329 90.7838L249.251 91.5682C249.529 90.181 249.901 88.6171 250.373 86.8738L246.511 85.8302ZM245.327 90.793C244.939 92.7826 244.598 94.7024 244.306 96.5521L248.257 97.1759C248.541 95.3776 248.873 93.5054 249.253 91.559L245.327 90.793ZM244.308 96.5439C244.011 98.3739 243.85 99.9547 243.85 101.256H247.85C247.85 100.253 247.977 98.9061 248.256 97.1841L244.308 96.5439ZM243.85 101.256C243.85 102.287 243.981 103.377 244.477 104.275C244.742 104.755 245.128 105.208 245.667 105.534C246.21 105.861 246.798 105.992 247.362 105.992V101.992C247.421 101.992 247.568 102.009 247.733 102.108C247.895 102.206 247.965 102.317 247.978 102.341C247.985 102.353 247.948 102.287 247.911 102.091C247.876 101.898 247.85 101.626 247.85 101.256H243.85ZM247.362 105.992C248.382 105.992 249.224 105.495 249.828 105.006C250.457 104.495 251.059 103.805 251.639 103.015L248.413 100.649C247.937 101.299 247.567 101.689 247.308 101.898C247.024 102.129 247.062 101.992 247.362 101.992V105.992ZM251.613 103.049C252.876 101.402 254.107 99.0281 255.333 96.0384L251.631 94.5216C250.457 97.3879 249.384 99.3823 248.439 100.615L251.613 103.049ZM255.322 96.0642C256.617 93.0248 257.845 89.3307 259.013 85.0007L255.151 83.9593C254.015 88.1733 252.843 91.6792 251.642 94.4958L255.322 96.0642ZM259.014 84.9953C259.342 83.768 259.759 83.1901 260.071 82.9362L257.549 79.8318C256.325 80.8259 255.59 82.312 255.149 83.9647L259.014 84.9953ZM260.025 82.9727C260.348 82.7255 261.041 82.448 262.41 82.448V78.448C260.611 78.448 258.904 78.7945 257.595 79.7953L260.025 82.9727ZM242.538 141.776C243.934 141.776 245.058 140.977 245.885 140.121C246.74 139.235 247.55 138.009 248.334 136.543L244.806 134.657C244.102 135.975 243.496 136.837 243.007 137.343C242.489 137.879 242.342 137.776 242.538 137.776V141.776ZM248.334 136.543C249.955 133.51 251.489 128.658 252.983 122.152L249.085 121.256C247.603 127.71 246.161 132.122 244.806 134.657L248.334 136.543ZM249.744 120.176C245.977 123.356 243.129 126.329 241.301 129.098L244.639 131.302C246.171 128.983 248.699 126.292 252.324 123.232L249.744 120.176ZM241.277 129.134C239.553 131.873 238.522 134.509 238.522 136.968H242.522C242.522 135.587 243.122 133.711 244.662 131.266L241.277 129.134ZM238.522 136.968C238.522 138.004 238.703 139.034 239.198 139.942L242.71 138.026C242.629 137.878 242.522 137.564 242.522 136.968H238.522ZM239.267 140.058C240.03 141.258 241.255 141.776 242.538 141.776V137.776C242.421 137.776 242.428 137.755 242.496 137.789C242.529 137.806 242.563 137.829 242.593 137.856C242.623 137.883 242.638 137.905 242.641 137.91L239.267 140.058ZM307.616 90.6L305.635 90.3309L305.422 91.8943L306.893 92.4647L307.616 90.6ZM313.448 93.264L312.468 95.0071L312.479 95.0135L312.491 95.0198L313.448 93.264ZM317.408 96.792L315.777 97.9495L315.79 97.9667L315.802 97.9837L317.408 96.792ZM315.104 110.544L313.838 108.996L313.831 109.002L313.824 109.008L315.104 110.544ZM304.664 114.288L304.511 112.294L302.878 112.419L302.679 114.045L304.664 114.288ZM303.8 121.344L305.783 121.608L305.784 121.598L305.786 121.587L303.8 121.344ZM302.72 123L301.672 121.297L301.594 121.345L301.52 121.4L302.72 123ZM298.904 123L300.242 121.513L300.233 121.505L298.904 123ZM298.4 121.344L300.383 121.608L300.384 121.602L298.4 121.344ZM299.336 114.144L301.32 114.402L301.576 112.432L299.608 112.163L299.336 114.144ZM290.984 110.688L289.643 112.171L289.651 112.179L289.66 112.187L290.984 110.688ZM289.256 100.32L287.804 98.9445L289.256 100.32ZM295.016 99.96L296.535 98.6584L295.016 99.96ZM296.24 103.128L298.224 102.869L298.219 102.834L298.213 102.799L296.24 103.128ZM297.464 105.936L295.959 107.253L296.003 107.303L296.05 107.35L297.464 105.936ZM300.272 107.448L299.787 109.388L301.959 109.931L302.255 107.712L300.272 107.448ZM301.712 96.648L303.695 96.9123L303.902 95.3572L302.441 94.7855L301.712 96.648ZM296.024 93.984L294.964 95.68L294.995 95.6992L295.026 95.7172L296.024 93.984ZM292.136 90.24L290.449 91.3138L290.468 91.3438L290.488 91.3731L292.136 90.24ZM294.656 75.768L293.387 74.2225L294.656 75.768ZM304.88 72.024L305.02 74.0191L306.669 73.9041L306.866 72.2623L304.88 72.024ZM305.744 64.824L307.73 65.0623L307.736 65.0098L307.74 64.957L305.744 64.824ZM306.68 63.168L307.79 64.8321V64.8321L306.68 63.168ZM310.424 63.24L309.086 64.7266L309.164 64.7962L309.248 64.8575L310.424 63.24ZM311.072 64.824L309.092 64.5411L309.091 64.5546L311.072 64.824ZM310.064 72.24L308.083 71.9706L307.819 73.9134L309.756 74.216L310.064 72.24ZM317.336 75.408L315.983 76.8807L317.336 75.408ZM318.704 85.2L320.075 86.6564L320.078 86.654L318.704 85.2ZM313.088 85.416L311.674 86.8302L311.7 86.8564L311.727 86.8816L313.088 85.416ZM312.08 82.896L314.078 82.8052L314.077 82.7793L314.075 82.7535L312.08 82.896ZM309.2 78.936L309.863 77.0491L307.549 76.2358L307.219 78.6669L309.2 78.936ZM299.912 86.496L298.407 87.813L298.428 87.8372L298.45 87.8606L299.912 86.496ZM302.792 88.584L301.844 90.3449L304.42 91.7318L304.777 88.8285L302.792 88.584ZM304.016 78.648L306.001 78.8925L306.322 76.2874L303.725 76.6693L304.016 78.648ZM300.2 80.376L298.786 78.9618L298.767 78.9809L298.748 79.0005L300.2 80.376ZM305.456 107.664L303.472 107.414L303.144 110.015L305.739 109.644L305.456 107.664ZM309.344 106.152L310.633 107.682L310.656 107.662L310.678 107.642L309.344 106.152ZM309.632 100.536L308.17 101.901L308.194 101.926L308.218 101.95L309.632 100.536ZM306.608 98.52L307.451 96.706L304.966 95.5526L304.624 98.27L306.608 98.52ZM306.893 92.4647C309.191 93.3557 311.042 94.2049 312.468 95.0071L314.429 91.5209C312.783 90.5951 310.746 89.6683 308.339 88.7353L306.893 92.4647ZM312.491 95.0198C313.805 95.7365 314.895 96.7066 315.777 97.9495L319.039 95.6345C317.809 93.9014 316.26 92.5195 314.406 91.5082L312.491 95.0198ZM315.802 97.9837C316.61 99.0722 317.064 100.459 317.064 102.264H321.064C321.064 99.7485 320.415 97.4878 319.015 95.6003L315.802 97.9837ZM317.064 102.264C317.064 105.014 316.022 107.209 313.838 108.996L316.371 112.092C319.467 109.559 321.064 106.234 321.064 102.264H317.064ZM313.824 109.008C311.634 110.832 308.588 111.98 304.511 112.294L304.818 116.282C309.477 115.924 313.39 114.576 316.385 112.08L313.824 109.008ZM302.679 114.045L301.815 121.101L305.786 121.587L306.65 114.531L302.679 114.045ZM301.818 121.08C301.805 121.175 301.784 121.204 301.783 121.205C301.782 121.208 301.761 121.242 301.672 121.297L303.769 124.703C304.899 124.008 305.607 122.93 305.783 121.608L301.818 121.08ZM301.52 121.4C301.314 121.555 301.07 121.648 300.704 121.648V125.648C301.874 125.648 302.974 125.309 303.92 124.6L301.52 121.4ZM300.704 121.648C300.417 121.648 300.312 121.576 300.242 121.513L297.566 124.487C298.457 125.288 299.551 125.648 300.704 125.648V121.648ZM300.233 121.505C300.256 121.526 300.286 121.558 300.314 121.601C300.341 121.644 300.358 121.685 300.368 121.716C300.386 121.775 300.363 121.756 300.383 121.608L296.418 121.08C296.26 122.267 296.519 123.555 297.576 124.495L300.233 121.505ZM300.384 121.602L301.32 114.402L297.353 113.886L296.417 121.086L300.384 121.602ZM299.608 112.163C296.384 111.721 294.003 110.687 292.309 109.189L289.66 112.187C292.093 114.337 295.28 115.607 299.065 116.125L299.608 112.163ZM292.326 109.205C290.687 107.722 289.96 106.085 289.96 104.208H285.96C285.96 107.323 287.249 110.006 289.643 112.171L292.326 109.205ZM289.96 104.208C289.96 102.863 290.301 102.125 290.708 101.695L287.804 98.9445C286.483 100.339 285.96 102.193 285.96 104.208H289.96ZM290.708 101.695C291.214 101.161 291.73 100.952 292.352 100.952V96.952C290.575 96.952 289.026 97.6548 287.804 98.9445L290.708 101.695ZM292.352 100.952C293.187 100.952 293.424 101.176 293.498 101.262L296.535 98.6584C295.456 97.4003 293.917 96.952 292.352 96.952V100.952ZM293.498 101.262C293.729 101.531 294.053 102.168 294.268 103.457L298.213 102.799C297.948 101.208 297.456 99.7329 296.535 98.6584L293.498 101.262ZM294.257 103.387C294.447 104.846 295.003 106.16 295.959 107.253L298.969 104.619C298.582 104.176 298.321 103.618 298.224 102.869L294.257 103.387ZM296.05 107.35C297.066 108.367 298.343 109.027 299.787 109.388L300.757 105.508C299.898 105.293 299.302 104.945 298.879 104.522L296.05 107.35ZM302.255 107.712L303.695 96.9123L299.73 96.3837L298.29 107.184L302.255 107.712ZM302.441 94.7855C300.3 93.9478 298.499 93.1009 297.022 92.2508L295.026 95.7172C296.718 96.6911 298.708 97.6202 300.984 98.5105L302.441 94.7855ZM297.084 92.288C295.788 91.4776 294.69 90.4237 293.784 89.1069L290.488 91.3731C291.695 93.1283 293.189 94.5704 294.964 95.68L297.084 92.288ZM293.824 89.1662C293.062 87.9692 292.624 86.4183 292.624 84.408H288.624C288.624 87.0057 289.195 89.3428 290.449 91.3138L293.824 89.1662ZM292.624 84.408C292.624 81.4399 293.712 79.1324 295.926 77.3134L293.387 74.2225C290.225 76.8196 288.624 80.2721 288.624 84.408H292.624ZM295.926 77.3134C298.236 75.416 301.225 74.2839 305.02 74.0191L304.741 70.0289C300.279 70.3401 296.453 71.704 293.387 74.2225L295.926 77.3134ZM306.866 72.2623L307.73 65.0623L303.759 64.5857L302.895 71.7857L306.866 72.2623ZM307.74 64.957C307.743 64.9038 307.751 64.8732 307.754 64.8601C307.758 64.8479 307.759 64.8477 307.755 64.8541C307.752 64.8607 307.748 64.8646 307.749 64.864C307.75 64.8629 307.761 64.8513 307.79 64.8321L305.571 61.5039C304.453 62.2495 303.836 63.3813 303.749 64.691L307.74 64.957ZM307.79 64.8321C308.024 64.6762 308.282 64.592 308.624 64.592V60.592C307.526 60.592 306.489 60.8918 305.571 61.5039L307.79 64.8321ZM308.624 64.592C308.911 64.592 309.017 64.6639 309.086 64.7266L311.762 61.7534C310.872 60.9521 309.777 60.592 308.624 60.592V64.592ZM309.248 64.8575C309.256 64.8632 309.239 64.8522 309.212 64.8193C309.184 64.785 309.154 64.738 309.131 64.6813C309.081 64.5586 309.1 64.49 309.092 64.5412L313.052 65.1068C313.141 64.486 313.1 63.8174 312.833 63.1667C312.565 62.5115 312.121 62.0008 311.601 61.6225L309.248 64.8575ZM309.091 64.5546L308.083 71.9706L312.046 72.5094L313.054 65.0934L309.091 64.5546ZM309.756 74.216C312.549 74.6525 314.571 75.5834 315.983 76.8807L318.69 73.9353C316.549 71.9686 313.723 70.7875 310.373 70.264L309.756 74.216ZM315.983 76.8807C317.34 78.1275 318 79.6302 318 81.528H322C322 78.5298 320.885 75.9525 318.69 73.9353L315.983 76.8807ZM318 81.528C318 82.8216 317.663 83.4321 317.331 83.746L320.078 86.654C321.473 85.3359 322 83.4984 322 81.528H318ZM317.334 83.7436C316.932 84.1216 316.41 84.352 315.608 84.352V88.352C317.303 88.352 318.845 87.8144 320.075 86.6564L317.334 83.7436ZM315.608 84.352C315.051 84.352 314.713 84.1956 314.449 83.9504L311.727 86.8816C312.807 87.8844 314.15 88.352 315.608 88.352V84.352ZM314.503 84.0018C314.299 83.798 314.108 83.4669 314.078 82.8052L310.082 82.9868C310.148 84.4371 310.63 85.7859 311.674 86.8302L314.503 84.0018ZM314.075 82.7535C313.983 81.4611 313.617 80.2449 312.87 79.2177C312.116 78.1811 311.074 77.4743 309.863 77.0491L308.537 80.8229C309.103 81.0217 309.429 81.2869 309.635 81.5703C309.848 81.8631 310.034 82.3149 310.085 83.0385L314.075 82.7535ZM307.219 78.6669L305.635 90.3309L309.598 90.8691L311.182 79.2051L307.219 78.6669ZM296.904 83.832C296.904 85.331 297.421 86.6854 298.407 87.813L301.417 85.179C301.06 84.7706 300.904 84.349 300.904 83.832H296.904ZM298.45 87.8606C299.32 88.793 300.481 89.611 301.844 90.3449L303.741 86.8231C302.608 86.213 301.848 85.639 301.374 85.1314L298.45 87.8606ZM304.777 88.8285L306.001 78.8925L302.031 78.4035L300.807 88.3395L304.777 88.8285ZM303.725 76.6693C301.787 76.9543 300.078 77.6703 298.786 78.9618L301.615 81.7902C302.147 81.2577 302.981 80.8217 304.307 80.6267L303.725 76.6693ZM298.748 79.0005C297.493 80.3255 296.904 81.9884 296.904 83.832H300.904C300.904 82.8916 301.179 82.2505 301.652 81.7515L298.748 79.0005ZM305.739 109.644C307.641 109.372 309.337 108.773 310.633 107.682L308.056 104.622C307.527 105.067 306.632 105.476 305.174 105.684L305.739 109.644ZM310.678 107.642C312.023 106.439 312.712 104.86 312.712 103.056H308.712C308.712 103.748 308.489 104.233 308.011 104.662L310.678 107.642ZM312.712 103.056C312.712 101.531 312.116 100.192 311.047 99.1218L308.218 101.95C308.588 102.32 308.712 102.661 308.712 103.056H312.712ZM311.094 99.1714C310.181 98.1929 308.922 97.389 307.451 96.706L305.766 100.334C306.983 100.899 307.739 101.439 308.17 101.901L311.094 99.1714ZM304.624 98.27L303.472 107.414L307.441 107.914L308.593 98.77L304.624 98.27ZM366.11 92.832L364.349 93.7802V93.7802L366.11 92.832ZM366.11 98.016L367.871 98.9642L367.885 98.9375L367.899 98.9104L366.11 98.016ZM364.526 99.312L363.894 97.4146L363.88 97.4193L363.865 97.4243L364.526 99.312ZM355.022 101.04L354.939 99.0417L353.431 99.1046L353.078 100.571L355.022 101.04ZM349.55 110.688L348.203 109.209L348.197 109.215L348.19 109.221L349.55 110.688ZM330.182 108.816L331.899 107.79L330.182 108.816ZM329.174 72.6L331.131 73.0146L331.131 73.012L329.174 72.6ZM335.87 54.024L334.14 53.0213L334.137 53.0264L335.87 54.024ZM351.782 49.2L350.144 50.3469L350.151 50.3567L350.158 50.3664L351.782 49.2ZM351.566 68.28L353.434 68.9949L351.566 68.28ZM344.15 80.52L342.595 79.2621L340.194 82.2303L344.001 82.5145L344.15 80.52ZM351.998 84.552L350.454 85.8234L350.46 85.8309L350.467 85.8384L351.998 84.552ZM355.598 93.48L353.61 93.695L353.815 95.5979L355.726 95.4759L355.598 93.48ZM363.662 92.04L364.168 93.9749L364.232 93.9582L364.295 93.9374L363.662 92.04ZM341.63 57.768L339.773 57.0252L339.77 57.0334L339.767 57.0416L341.63 57.768ZM338.534 69.36L336.572 68.9752L338.534 69.36ZM336.374 85.416L334.381 85.2513L338.13 86.3737L336.374 85.416ZM343.934 70.08L342.097 69.2898L342.093 69.2994L343.934 70.08ZM346.238 54.672L344.389 55.4335L344.408 55.479L344.429 55.5236L346.238 54.672ZM345.014 104.856L343.545 103.499V103.499L345.014 104.856ZM347.318 99.456L349.292 99.7783L349.498 98.5169L348.44 97.8002L347.318 99.456ZM343.862 95.496L342.053 96.3476L342.063 96.3691L342.073 96.3904L343.862 95.496ZM342.998 87.576L344.971 87.9048L345.359 85.576H342.998V87.576ZM337.814 90.528L336.163 89.4001L336.156 89.409L337.814 90.528ZM337.382 104.568L335.744 105.715L335.756 105.733L335.769 105.751L337.382 104.568ZM364.67 93.896C364.658 93.896 364.621 93.8943 364.567 93.8791C364.512 93.8636 364.457 93.8387 364.408 93.8069C364.308 93.7415 364.303 93.6942 364.349 93.7802L367.871 91.8838C367.244 90.719 366.144 89.896 364.67 89.896V93.896ZM364.349 93.7802C364.483 94.0278 364.614 94.4668 364.614 95.208H368.614C368.614 94.0292 368.41 92.8842 367.871 91.8838L364.349 93.7802ZM364.614 95.208C364.614 96.2631 364.46 96.8448 364.321 97.1216L367.899 98.9104C368.433 97.8431 368.614 96.5529 368.614 95.208H364.614ZM364.349 97.0678C364.273 97.2095 364.168 97.3232 363.894 97.4146L365.159 101.209C366.324 100.821 367.275 100.07 367.871 98.9642L364.349 97.0678ZM363.865 97.4243C361.194 98.3592 358.224 98.9049 354.939 99.0417L355.105 103.038C358.732 102.887 362.098 102.281 365.187 101.2L363.865 97.4243ZM353.078 100.571C352.199 104.218 350.559 107.064 348.203 109.209L350.897 112.167C353.917 109.416 355.925 105.83 356.967 101.509L353.078 100.571ZM348.19 109.221C345.872 111.371 343.416 112.36 340.766 112.36V116.36C344.548 116.36 347.948 114.901 350.91 112.155L348.19 109.221ZM340.766 112.36C336.516 112.36 333.695 110.796 331.899 107.79L328.465 109.842C331.086 114.228 335.32 116.36 340.766 116.36V112.36ZM331.899 107.79C329.959 104.542 328.87 99.6105 328.87 92.76H324.87C324.87 99.9255 325.99 105.698 328.465 109.842L331.899 107.79ZM328.87 92.76C328.87 86.7314 329.618 80.152 331.131 73.0146L327.218 72.1854C325.658 79.544 324.87 86.4046 324.87 92.76H328.87ZM331.131 73.012C332.635 65.8689 334.804 59.8858 337.604 55.0216L334.137 53.0264C331.08 58.3382 328.785 64.7391 327.217 72.188L331.131 73.012ZM337.601 55.0267C340.398 50.1991 343.384 48.32 346.454 48.32V44.32C341.364 44.32 337.294 47.5769 334.14 53.0213L337.601 55.0267ZM346.454 48.32C347.964 48.32 349.147 48.9228 350.144 50.3469L353.421 48.0531C351.73 45.6372 349.361 44.32 346.454 44.32V48.32ZM350.158 50.3664C351.191 51.8063 351.798 53.8087 351.798 56.544H355.798C355.798 53.2313 355.061 50.3377 353.407 48.0336L350.158 50.3664ZM351.798 56.544C351.798 60.2218 351.104 63.892 349.698 67.5651L353.434 68.9949C355.004 64.892 355.798 60.7382 355.798 56.544H351.798ZM349.698 67.5651C348.305 71.2054 345.959 75.1045 342.595 79.2621L345.705 81.7779C349.254 77.3915 351.851 73.1306 353.434 68.9949L349.698 67.5651ZM344.001 82.5145C346.684 82.7146 348.792 83.8046 350.454 85.8234L353.542 83.2806C351.173 80.4034 348.049 78.8054 344.299 78.5255L344.001 82.5145ZM350.467 85.8384C352.193 87.8934 353.262 90.4806 353.61 93.695L357.587 93.265C357.166 89.3754 355.835 86.0106 353.53 83.2656L350.467 85.8384ZM355.726 95.4759C358.151 95.3211 360.972 94.8109 364.168 93.9749L363.156 90.1051C360.112 90.9011 357.558 91.3509 355.471 91.4841L355.726 95.4759ZM364.295 93.9374C364.333 93.9246 364.447 93.896 364.67 93.896V89.896C364.125 89.896 363.567 89.9634 363.03 90.1426L364.295 93.9374ZM344.798 51.448C343.298 51.448 342.272 52.529 341.673 53.3453C340.999 54.2651 340.373 55.5255 339.773 57.0252L343.487 58.5108C344.039 57.1305 344.517 56.2309 344.899 55.7107C345.356 55.087 345.338 55.448 344.798 55.448V51.448ZM339.767 57.0416C338.601 60.0318 337.542 64.0264 336.572 68.9752L340.497 69.7448C341.446 64.9016 342.451 61.1682 343.494 58.4944L339.767 57.0416ZM336.572 68.9752C335.595 73.9548 334.866 79.3813 334.381 85.2513L338.367 85.5807C338.842 79.8347 339.553 74.5572 340.497 69.7448L336.572 68.9752ZM338.13 86.3737C341.319 80.528 343.87 75.3548 345.776 70.8606L342.093 69.2994C340.254 73.6372 337.766 78.688 334.618 84.4583L338.13 86.3737ZM345.771 70.8702C347.758 66.2508 348.814 62.0143 348.814 58.2H344.814C344.814 61.2977 343.95 64.9812 342.097 69.2898L345.771 70.8702ZM348.814 58.2C348.814 56.5488 348.616 55.0277 348.048 53.8204L344.429 55.5236C344.628 55.9483 344.814 56.7792 344.814 58.2H348.814ZM348.088 53.9105C347.594 52.7128 346.568 51.448 344.798 51.448V55.448C344.732 55.448 344.643 55.4364 344.546 55.4005C344.449 55.3647 344.377 55.3168 344.331 55.2779C344.251 55.2096 344.296 55.209 344.389 55.4335L348.088 53.9105ZM341.054 108.728C343.182 108.728 345.012 107.807 346.484 106.213L343.545 103.499C342.712 104.401 341.903 104.728 341.054 104.728V108.728ZM346.484 106.213C347.989 104.582 348.869 102.367 349.292 99.7783L345.344 99.1337C344.999 101.249 344.344 102.634 343.545 103.499L346.484 106.213ZM348.44 97.8002C347.24 96.9876 346.316 95.9316 345.651 94.6016L342.073 96.3904C343.04 98.3244 344.42 99.9084 346.196 101.112L348.44 97.8002ZM345.672 94.6444C345.031 93.2819 344.71 91.845 344.71 90.312H340.71C340.71 92.427 341.158 94.4461 342.053 96.3476L345.672 94.6444ZM344.71 90.312C344.71 89.8018 344.786 89.0149 344.971 87.9048L341.025 87.2472C340.826 88.4411 340.71 89.4782 340.71 90.312H344.71ZM342.998 85.576H342.782V89.576H342.998V85.576ZM342.782 85.576C340.009 85.576 337.79 87.0177 336.163 89.4001L339.466 91.6559C340.527 90.1023 341.619 89.576 342.782 89.576V85.576ZM336.156 89.409C334.563 91.7693 333.87 94.7982 333.87 98.304H337.87C337.87 95.2818 338.473 93.1267 339.472 91.6469L336.156 89.409ZM333.87 98.304C333.87 101.238 334.403 103.799 335.744 105.715L339.021 103.421C338.346 102.457 337.87 100.842 337.87 98.304H333.87ZM335.769 105.751C337.084 107.544 338.849 108.728 341.054 108.728V104.728C340.475 104.728 339.792 104.472 338.995 103.385L335.769 105.751ZM365.293 74.328L363.914 75.7763L363.933 75.7939L363.952 75.8111L365.293 74.328ZM365.725 66.192L367.022 67.7145L367.027 67.7105L365.725 66.192ZM374.797 74.04L376.123 75.538L376.138 75.524L376.154 75.5096L374.797 74.04ZM362.413 111.048L360.722 112.115L360.73 112.128L360.738 112.141L362.413 111.048ZM361.117 93.984L359.145 93.6507L359.143 93.6621L359.142 93.6735L361.117 93.984ZM363.277 84.48L365.196 85.046L365.199 85.0338L365.203 85.0215L363.277 84.48ZM370.765 91.248L372.719 91.6743L372.721 91.6656L372.723 91.6568L370.765 91.248ZM374.797 104.64L373.439 103.172H373.439L374.797 104.64ZM379.981 98.952L378.463 97.6504L378.454 97.661L378.445 97.6716L379.981 98.952ZM383.365 98.808L381.638 99.8157L381.668 99.8675L381.701 99.9174L383.365 98.808ZM382.573 105.648L381.06 104.341L381.042 104.361L381.025 104.382L382.573 105.648ZM369.829 73.696C368.075 73.696 367.133 73.2949 366.635 72.8449L363.952 75.8111C365.47 77.1851 367.552 77.696 369.829 77.696V73.696ZM366.673 72.8797C366.141 72.3738 365.781 71.6226 365.781 70.368H361.781C361.781 72.4734 362.429 74.3622 363.914 75.7763L366.673 72.8797ZM365.781 70.368C365.781 69.283 366.166 68.4444 367.022 67.7145L364.428 64.6695C362.693 66.1476 361.781 68.093 361.781 70.368H365.781ZM367.027 67.7105C367.967 66.9045 369.146 66.464 370.693 66.464V62.464C368.305 62.464 366.171 63.1755 364.424 64.6735L367.027 67.7105ZM370.693 66.464C372.144 66.464 373.113 66.8127 373.781 67.335L376.246 64.185C374.705 62.9793 372.795 62.464 370.693 62.464V66.464ZM373.781 67.335C374.333 67.7673 374.669 68.3723 374.669 69.432H378.669C378.669 67.3237 377.902 65.4807 376.246 64.185L373.781 67.335ZM374.669 69.432C374.669 70.8742 374.223 71.8483 373.441 72.5704L376.154 75.5096C377.868 73.9277 378.669 71.8298 378.669 69.432H374.669ZM373.472 72.542C372.672 73.2504 371.526 73.696 369.829 73.696V77.696C372.26 77.696 374.427 77.0376 376.123 75.538L373.472 72.542ZM369.253 112.36C366.665 112.36 365.087 111.487 364.089 109.955L360.738 112.141C362.62 115.025 365.601 116.36 369.253 116.36V112.36ZM364.105 109.981C362.98 108.196 362.325 105.678 362.325 102.264H358.325C358.325 106.146 359.063 109.484 360.722 112.115L364.105 109.981ZM362.325 102.264C362.325 100.249 362.573 97.603 363.093 94.2945L359.142 93.6735C358.606 97.085 358.325 99.9586 358.325 102.264H362.325ZM363.089 94.3173C363.654 90.9778 364.357 87.8884 365.196 85.046L361.359 83.914C360.47 86.9276 359.733 90.1742 359.145 93.6507L363.089 94.3173ZM365.203 85.0215C365.595 83.626 366.024 83.0588 366.255 82.8737L363.756 79.7503C362.547 80.7172 361.824 82.262 361.352 83.9385L365.203 85.0215ZM366.255 82.8737C366.443 82.7228 367.036 82.448 368.461 82.448V78.448C366.718 78.448 365.007 78.7491 363.756 79.7503L366.255 82.8737ZM368.461 82.448C369.526 82.448 369.975 82.637 370.106 82.7241C370.145 82.75 370.129 82.748 370.115 82.7194C370.105 82.6991 370.133 82.7392 370.133 82.896H374.133C374.133 81.4974 373.561 80.2202 372.325 79.3959C371.232 78.667 369.844 78.448 368.461 78.448V82.448ZM370.133 82.896C370.133 83.8452 369.733 86.4049 368.808 90.8392L372.723 91.6568C373.621 87.3551 374.133 84.3468 374.133 82.896H370.133ZM368.811 90.8217C367.666 96.0715 367.037 99.8545 367.037 101.976H371.037C371.037 100.354 371.561 96.9845 372.719 91.6743L368.811 90.8217ZM367.037 101.976C367.037 103.543 367.238 105.009 367.825 106.182L371.402 104.394C371.221 104.031 371.037 103.289 371.037 101.976H367.037ZM367.825 106.182C368.164 106.861 368.669 107.458 369.368 107.873C370.06 108.283 370.818 108.44 371.557 108.44V104.44C371.469 104.44 371.42 104.431 371.401 104.426C371.384 104.422 371.389 104.421 371.407 104.431C371.425 104.442 371.437 104.454 371.441 104.458C371.443 104.46 371.427 104.444 371.402 104.394L367.825 106.182ZM371.557 108.44C373.242 108.44 374.818 107.346 376.156 106.108L373.439 103.172C372.862 103.706 372.399 104.045 372.044 104.242C371.681 104.443 371.535 104.44 371.557 104.44V108.44ZM376.156 106.108C377.549 104.818 379.343 102.843 381.518 100.232L378.445 97.6716C376.3 100.245 374.638 102.062 373.439 103.172L376.156 106.108ZM381.5 100.254C381.655 100.072 381.767 99.9991 381.82 99.9715C381.864 99.9489 381.89 99.944 381.925 99.944V95.944C380.49 95.944 379.324 96.6458 378.463 97.6504L381.5 100.254ZM381.925 99.944C381.927 99.944 381.903 99.944 381.862 99.9332C381.819 99.9221 381.771 99.9029 381.724 99.875C381.625 99.8155 381.607 99.763 381.638 99.8157L385.093 97.8003C384.429 96.6613 383.318 95.944 381.925 95.944V99.944ZM381.701 99.9174C381.788 100.047 381.941 100.4 381.941 101.184H385.941C385.941 99.9521 385.711 98.7212 385.03 97.6986L381.701 99.9174ZM381.941 101.184C381.941 102.804 381.557 103.765 381.06 104.341L384.087 106.955C385.413 105.419 385.941 103.404 385.941 101.184H381.941ZM381.025 104.382C376.362 110.081 372.438 112.36 369.253 112.36V116.36C374.325 116.36 379.281 112.831 384.121 106.914L381.025 104.382ZM417.86 92.832L416.099 93.7802V93.7802L417.86 92.832ZM417.86 98.016L419.621 98.9642L419.635 98.9375L419.649 98.9104L417.86 98.016ZM416.276 99.312L415.644 97.4146L415.63 97.4193L415.615 97.4243L416.276 99.312ZM406.772 101.04L406.689 99.0417L405.181 99.1046L404.828 100.571L406.772 101.04ZM401.3 110.688L399.953 109.209L399.947 109.215L399.94 109.221L401.3 110.688ZM381.932 108.816L383.649 107.79L381.932 108.816ZM380.924 72.6L382.881 73.0146L382.881 73.012L380.924 72.6ZM387.62 54.024L385.89 53.0213L385.887 53.0264L387.62 54.024ZM403.532 49.2L401.894 50.3469L401.901 50.3567L401.908 50.3664L403.532 49.2ZM403.316 68.28L405.184 68.9949L403.316 68.28ZM395.9 80.52L394.345 79.2621L391.944 82.2303L395.751 82.5145L395.9 80.52ZM403.748 84.552L402.204 85.8234L402.21 85.8309L402.217 85.8384L403.748 84.552ZM407.348 93.48L405.36 93.695L405.565 95.5979L407.476 95.4759L407.348 93.48ZM415.412 92.04L415.918 93.9749L415.982 93.9582L416.045 93.9374L415.412 92.04ZM393.38 57.768L391.523 57.0252L391.52 57.0334L391.517 57.0416L393.38 57.768ZM390.284 69.36L388.322 68.9752L390.284 69.36ZM388.124 85.416L386.131 85.2513L389.88 86.3737L388.124 85.416ZM395.684 70.08L393.847 69.2898L393.843 69.2994L395.684 70.08ZM397.988 54.672L396.139 55.4335L396.158 55.479L396.179 55.5236L397.988 54.672ZM396.764 104.856L395.295 103.499V103.499L396.764 104.856ZM399.068 99.456L401.042 99.7783L401.248 98.5169L400.19 97.8002L399.068 99.456ZM395.612 95.496L393.803 96.3476L393.813 96.3691L393.823 96.3904L395.612 95.496ZM394.748 87.576L396.721 87.9048L397.109 85.576H394.748V87.576ZM389.564 90.528L387.913 89.4001L387.906 89.409L389.564 90.528ZM389.132 104.568L387.494 105.715L387.506 105.733L387.519 105.751L389.132 104.568ZM416.42 93.896C416.408 93.896 416.371 93.8943 416.317 93.8791C416.262 93.8636 416.207 93.8387 416.158 93.8069C416.058 93.7415 416.053 93.6942 416.099 93.7802L419.621 91.8838C418.994 90.719 417.894 89.896 416.42 89.896V93.896ZM416.099 93.7802C416.233 94.0278 416.364 94.4668 416.364 95.208H420.364C420.364 94.0292 420.16 92.8842 419.621 91.8838L416.099 93.7802ZM416.364 95.208C416.364 96.2631 416.21 96.8448 416.071 97.1216L419.649 98.9104C420.183 97.8431 420.364 96.5529 420.364 95.208H416.364ZM416.099 97.0678C416.023 97.2095 415.918 97.3232 415.644 97.4146L416.909 101.209C418.074 100.821 419.025 100.07 419.621 98.9642L416.099 97.0678ZM415.615 97.4243C412.944 98.3592 409.974 98.9049 406.689 99.0417L406.855 103.038C410.482 102.887 413.848 102.281 416.937 101.2L415.615 97.4243ZM404.828 100.571C403.949 104.218 402.309 107.064 399.953 109.209L402.647 112.167C405.667 109.416 407.675 105.83 408.716 101.509L404.828 100.571ZM399.94 109.221C397.622 111.371 395.166 112.36 392.516 112.36V116.36C396.298 116.36 399.698 114.901 402.66 112.155L399.94 109.221ZM392.516 112.36C388.266 112.36 385.445 110.796 383.649 107.79L380.215 109.842C382.836 114.228 387.07 116.36 392.516 116.36V112.36ZM383.649 107.79C381.709 104.542 380.62 99.6105 380.62 92.76H376.62C376.62 99.9255 377.74 105.698 380.215 109.842L383.649 107.79ZM380.62 92.76C380.62 86.7314 381.368 80.152 382.881 73.0146L378.968 72.1854C377.408 79.544 376.62 86.4046 376.62 92.76H380.62ZM382.881 73.012C384.385 65.8689 386.554 59.8858 389.354 55.0216L385.887 53.0264C382.83 58.3382 380.535 64.7391 378.967 72.188L382.881 73.012ZM389.351 55.0267C392.148 50.1991 395.134 48.32 398.204 48.32V44.32C393.114 44.32 389.044 47.5769 385.89 53.0213L389.351 55.0267ZM398.204 48.32C399.714 48.32 400.897 48.9228 401.894 50.3469L405.171 48.0531C403.48 45.6372 401.111 44.32 398.204 44.32V48.32ZM401.908 50.3664C402.941 51.8063 403.548 53.8087 403.548 56.544H407.548C407.548 53.2313 406.811 50.3377 405.157 48.0336L401.908 50.3664ZM403.548 56.544C403.548 60.2218 402.854 63.892 401.448 67.5651L405.184 68.9949C406.754 64.892 407.548 60.7382 407.548 56.544H403.548ZM401.448 67.5651C400.055 71.2054 397.709 75.1045 394.345 79.2621L397.455 81.7779C401.004 77.3915 403.601 73.1306 405.184 68.9949L401.448 67.5651ZM395.751 82.5145C398.434 82.7146 400.542 83.8046 402.204 85.8234L405.292 83.2806C402.923 80.4034 399.799 78.8054 396.049 78.5255L395.751 82.5145ZM402.217 85.8384C403.943 87.8934 405.012 90.4806 405.36 93.695L409.337 93.265C408.916 89.3754 407.585 86.0106 405.28 83.2656L402.217 85.8384ZM407.476 95.4759C409.901 95.3211 412.722 94.8109 415.918 93.9749L414.906 90.1051C411.862 90.9011 409.308 91.3509 407.221 91.4841L407.476 95.4759ZM416.045 93.9374C416.083 93.9246 416.197 93.896 416.42 93.896V89.896C415.875 89.896 415.317 89.9634 414.78 90.1426L416.045 93.9374ZM396.548 51.448C395.048 51.448 394.022 52.529 393.423 53.3453C392.749 54.2651 392.123 55.5255 391.523 57.0252L395.237 58.5108C395.789 57.1305 396.267 56.2309 396.649 55.7107C397.106 55.087 397.088 55.448 396.548 55.448V51.448ZM391.517 57.0416C390.351 60.0318 389.292 64.0264 388.322 68.9752L392.247 69.7448C393.196 64.9016 394.201 61.1682 395.244 58.4944L391.517 57.0416ZM388.322 68.9752C387.345 73.9548 386.616 79.3813 386.131 85.2513L390.117 85.5807C390.592 79.8347 391.303 74.5572 392.247 69.7448L388.322 68.9752ZM389.88 86.3737C393.069 80.528 395.62 75.3548 397.526 70.8606L393.843 69.2994C392.004 73.6372 389.516 78.688 386.368 84.4583L389.88 86.3737ZM397.521 70.8702C399.508 66.2508 400.564 62.0143 400.564 58.2H396.564C396.564 61.2977 395.7 64.9812 393.847 69.2898L397.521 70.8702ZM400.564 58.2C400.564 56.5488 400.366 55.0277 399.798 53.8204L396.179 55.5236C396.378 55.9483 396.564 56.7792 396.564 58.2H400.564ZM399.838 53.9105C399.344 52.7128 398.318 51.448 396.548 51.448V55.448C396.482 55.448 396.393 55.4364 396.296 55.4005C396.199 55.3647 396.127 55.3168 396.081 55.2779C396.001 55.2096 396.046 55.209 396.139 55.4335L399.838 53.9105ZM392.804 108.728C394.932 108.728 396.762 107.807 398.234 106.213L395.295 103.499C394.462 104.401 393.653 104.728 392.804 104.728V108.728ZM398.234 106.213C399.739 104.582 400.619 102.367 401.042 99.7783L397.094 99.1337C396.749 101.249 396.094 102.634 395.295 103.499L398.234 106.213ZM400.19 97.8002C398.99 96.9876 398.066 95.9316 397.401 94.6016L393.823 96.3904C394.79 98.3244 396.17 99.9084 397.946 101.112L400.19 97.8002ZM397.422 94.6444C396.781 93.2819 396.46 91.845 396.46 90.312H392.46C392.46 92.427 392.908 94.4461 393.803 96.3476L397.422 94.6444ZM396.46 90.312C396.46 89.8018 396.536 89.0149 396.721 87.9048L392.775 87.2472C392.576 88.4411 392.46 89.4782 392.46 90.312H396.46ZM394.748 85.576H394.532V89.576H394.748V85.576ZM394.532 85.576C391.759 85.576 389.54 87.0177 387.913 89.4001L391.216 91.6559C392.277 90.1023 393.369 89.576 394.532 89.576V85.576ZM387.906 89.409C386.313 91.7693 385.62 94.7982 385.62 98.304H389.62C389.62 95.2818 390.223 93.1267 391.222 91.6469L387.906 89.409ZM385.62 98.304C385.62 101.238 386.153 103.799 387.494 105.715L390.771 103.421C390.096 102.457 389.62 100.842 389.62 98.304H385.62ZM387.519 105.751C388.834 107.544 390.599 108.728 392.804 108.728V104.728C392.225 104.728 391.542 104.472 390.745 103.385L387.519 105.751ZM417.547 74.328L416.168 75.7763L416.187 75.7939L416.206 75.8111L417.547 74.328ZM417.979 66.192L419.276 67.7145L419.281 67.7105L417.979 66.192ZM427.051 74.04L428.377 75.538L428.392 75.524L428.408 75.5096L427.051 74.04ZM412.003 113.424L413.473 112.067L412.003 113.424ZM411.283 108.456L413.273 108.655L413.275 108.643L413.276 108.63L411.283 108.456ZM415.099 84.48L413.163 83.9802L413.16 83.9906L413.158 84.001L415.099 84.48ZM416.971 81.384L418.081 83.0481L418.091 83.0414L418.101 83.0346L416.971 81.384ZM424.243 84.336L426.201 84.7476L426.214 84.6836L426.223 84.6188L424.243 84.336ZM420.355 110.184L422.352 110.309L422.352 110.308L420.355 110.184ZM418.987 113.424L420.202 115.013L418.987 113.424ZM422.083 73.696C420.329 73.696 419.387 73.2949 418.889 72.8449L416.206 75.8111C417.724 77.1851 419.806 77.696 422.083 77.696V73.696ZM418.927 72.8797C418.395 72.3738 418.035 71.6226 418.035 70.368H414.035C414.035 72.4734 414.683 74.3622 416.168 75.7763L418.927 72.8797ZM418.035 70.368C418.035 69.283 418.42 68.4444 419.276 67.7145L416.682 64.6695C414.947 66.1476 414.035 68.093 414.035 70.368H418.035ZM419.281 67.7105C420.221 66.9045 421.4 66.464 422.947 66.464V62.464C420.559 62.464 418.425 63.1755 416.678 64.6735L419.281 67.7105ZM422.947 66.464C424.398 66.464 425.367 66.8127 426.035 67.335L428.5 64.185C426.959 62.9793 425.049 62.464 422.947 62.464V66.464ZM426.035 67.335C426.587 67.7673 426.923 68.3723 426.923 69.432H430.923C430.923 67.3237 430.156 65.4807 428.5 64.185L426.035 67.335ZM426.923 69.432C426.923 70.8742 426.477 71.8483 425.695 72.5704L428.408 75.5096C430.122 73.9277 430.923 71.8298 430.923 69.432H426.923ZM425.726 72.542C424.926 73.2504 423.78 73.696 422.083 73.696V77.696C424.514 77.696 426.681 77.0376 428.377 75.538L425.726 72.542ZM415.171 112.36C414.526 112.36 414.082 112.293 413.794 112.208C413.512 112.125 413.454 112.047 413.473 112.067L410.534 114.781C411.7 116.044 413.494 116.36 415.171 116.36V112.36ZM413.473 112.067C413.389 111.977 413.139 111.593 413.139 110.472H409.139C409.139 112.039 409.465 113.623 410.534 114.781L413.473 112.067ZM413.139 110.472C413.139 110.199 413.177 109.618 413.273 108.655L409.293 108.257C409.198 109.214 409.139 109.977 409.139 110.472H413.139ZM413.276 108.63C414.036 99.9304 415.294 92.0422 417.041 84.959L413.158 84.001C411.353 91.3178 410.066 99.4137 409.291 108.282L413.276 108.63ZM417.036 84.9798C417.355 83.7448 417.785 83.2455 418.081 83.0481L415.862 79.7199C414.43 80.6745 413.612 82.2392 413.163 83.9802L417.036 84.9798ZM418.101 83.0346C418.509 82.7555 419.451 82.448 421.291 82.448V78.448C419.196 78.448 417.258 78.7645 415.842 79.7334L418.101 83.0346ZM421.291 82.448C422.104 82.448 422.342 82.6215 422.351 82.6291C422.352 82.6299 422.347 82.6262 422.342 82.6191C422.337 82.6122 422.338 82.6116 422.343 82.6235C422.353 82.6488 422.387 82.749 422.387 82.968H426.387C426.387 81.6984 425.977 80.4234 424.876 79.5269C423.853 78.6945 422.543 78.448 421.291 78.448V82.448ZM422.387 82.968C422.387 82.9667 422.387 82.9912 422.383 83.0509C422.379 83.1079 422.373 83.1836 422.362 83.2806C422.342 83.4755 422.31 83.7312 422.264 84.0532L426.223 84.6188C426.317 83.9644 426.387 83.3717 426.387 82.968H422.387ZM422.286 83.9244C420.115 94.249 418.799 102.968 418.359 110.06L422.352 110.308C422.775 103.48 424.052 94.967 426.201 84.7476L422.286 83.9244ZM418.359 110.059C418.281 111.308 417.939 111.708 417.772 111.835L420.202 115.013C421.668 113.892 422.238 112.132 422.352 110.309L418.359 110.059ZM417.772 111.835C417.473 112.064 416.732 112.36 415.171 112.36V116.36C417.066 116.36 418.87 116.032 420.202 115.013L417.772 111.835Z" fill="black" mask="url(#path-1-outside-1_41_3)"/>
<path d="M26.285 47.0662C20.7836 47.0662 13.5888 61.5853 11.3574 66.0482C2.78542 83.1921 10.3848 108.09 13.016 125.851C16.2531 147.701 24.5147 166.83 49.5057 168.146C75.2315 169.5 100.035 168.62 125.618 171.463C151.285 174.315 176.942 176.565 202.836 177.729C222.438 178.61 242.172 177.047 261.717 178.927C277.698 180.463 293.557 182.503 309.541 183.995C353.685 188.115 399.965 196.632 444.35 192.933C481.362 189.849 518.271 192.773 555.386 193.025C570.612 193.129 586.777 194.533 601.643 190.445C611.274 187.796 625.798 181.55 631.683 173.122C639.522 161.893 639.976 150.74 639.976 137.369C639.976 120.617 643.082 100.114 638.225 83.9245C635.71 75.5422 630.676 66.9212 623.943 61.2566C617.533 55.8644 610.633 53.1656 602.565 50.9363C582.138 45.292 561.146 40.8683 540.274 37.2066C506.636 31.3051 472.423 24.0523 438.361 21.2653C402.161 18.3035 364.329 21.5282 328.155 23.8454C294.823 25.9805 262.372 28.8213 228.914 28.8213C176.076 28.8213 123.265 30.4799 70.4228 30.4799C55.2903 30.4799 46.7978 33.6448 32.9195 37.1144" stroke="#627EEA" stroke-width="3" stroke-linecap="round"/>
<path d="M7.42999 37.9814L5.30477 39.5016L5.3394 42.1143C5.47578 52.4021 6.22189 62.6418 6.9658 72.7081L7.00702 73.2658C7.74052 83.1886 8.4614 92.9407 8.63529 102.679C8.71248 107.001 8.4142 111.496 8.05984 116.247C8.02546 116.708 7.99053 117.171 7.95541 117.637C7.63406 121.901 7.2976 126.366 7.23489 130.795C7.09525 140.655 8.28234 151.057 14.4045 160.581C21.9125 172.26 34.8266 176.499 47.2613 177.991C56.8548 179.141 67.1041 178.739 75.5896 178.405C78.0562 178.308 80.3737 178.217 82.4827 178.172C92.5882 177.955 102.506 176.807 112.216 175.514C114.536 175.205 116.838 174.888 119.127 174.574C126.5 173.56 133.747 172.564 141.072 171.886C160.653 170.073 180.412 169.349 200.242 168.623C203.064 168.52 205.887 168.416 208.711 168.31C236.55 167.259 264.209 165.499 291.798 163.742C334.872 161.001 377.774 158.27 420.919 158.27C426.156 158.27 431.404 158.287 436.662 158.305C461.543 158.389 486.623 158.473 511.578 156.69C524.285 155.783 534.784 152.71 542.91 146.137C551.076 139.532 556.209 129.909 559.212 117.192C561.601 107.076 564.242 93.4279 564.573 79.9641C564.899 66.6726 563.007 52.605 555.397 42.459C546.318 30.3526 530.327 23.9157 514.635 19.9556C502.842 16.9796 490.361 15.2207 479.948 13.7533C476.415 13.2553 473.119 12.7909 470.169 12.3239C424.513 5.0949 381.896 3.05197 335.726 6.93548C328.031 7.58273 320.252 8.14855 312.423 8.71798C282.656 10.8832 252.172 13.1006 222.851 20.045C190.39 27.7332 156.699 32.1658 123.38 32.1658C111.752 32.1658 100.096 32.5842 88.5584 32.9983L88.5568 32.9984C76.9882 33.4136 65.5399 33.8245 54.1786 33.8245C51.6647 33.8245 48.4913 33.5912 44.7253 33.3145L44.4237 33.2923C40.6143 33.0125 36.3264 32.7047 32.0355 32.6388C23.7973 32.5122 14.1069 33.2052 7.42999 37.9814Z" stroke="white" stroke-width="10" stroke-linecap="round"/>
</svg>
